<svg width="726" height="287" viewBox="0 0 726 287" fill="none" xmlns="http://www.w3.org/2000/svg">
<g clip-path="url(#clip0_151_16596)">
<rect width="726" height="287" fill="#FAFAFA"/>
<rect x="54" y="24" width="617.127" height="308.563" rx="9.04215" fill="white"/>
<path d="M81.8125 51.7102C81.7822 51.4413 81.6572 51.233 81.4375 51.0852C81.2178 50.9356 80.9413 50.8608 80.608 50.8608C80.3693 50.8608 80.1629 50.8987 79.9886 50.9744C79.8144 51.0483 79.679 51.1506 79.5824 51.2812C79.4877 51.41 79.4403 51.5568 79.4403 51.7216C79.4403 51.8598 79.4725 51.9792 79.5369 52.0795C79.6032 52.1799 79.6894 52.2642 79.7955 52.3324C79.9034 52.3987 80.0189 52.4545 80.142 52.5C80.2652 52.5436 80.3835 52.5795 80.4972 52.608L81.0653 52.7557C81.2509 52.8011 81.4413 52.8627 81.6364 52.9403C81.8314 53.018 82.0123 53.1203 82.179 53.2472C82.3456 53.3741 82.4801 53.5312 82.5824 53.7188C82.6866 53.9062 82.7386 54.1307 82.7386 54.392C82.7386 54.7216 82.6534 55.0142 82.483 55.2699C82.3144 55.5256 82.0691 55.7273 81.7472 55.875C81.4271 56.0227 81.0398 56.0966 80.5852 56.0966C80.1496 56.0966 79.7727 56.0275 79.4545 55.8892C79.1364 55.7509 78.8873 55.5549 78.7074 55.3011C78.5275 55.0455 78.428 54.7424 78.4091 54.392H79.2898C79.3068 54.6023 79.375 54.7775 79.4943 54.9176C79.6155 55.0559 79.7699 55.1591 79.9574 55.2273C80.1468 55.2936 80.3542 55.3267 80.5795 55.3267C80.8277 55.3267 81.0483 55.2879 81.2415 55.2102C81.4366 55.1307 81.59 55.0208 81.7017 54.8807C81.8134 54.7386 81.8693 54.5729 81.8693 54.3835C81.8693 54.2112 81.8201 54.0701 81.7216 53.9602C81.625 53.8504 81.4934 53.7595 81.3267 53.6875C81.1619 53.6155 80.9754 53.5521 80.767 53.4972L80.0795 53.3097C79.6136 53.1828 79.2443 52.9962 78.9716 52.75C78.7008 52.5038 78.5653 52.178 78.5653 51.7727C78.5653 51.4375 78.6563 51.1449 78.8381 50.8949C79.0199 50.6449 79.2661 50.4508 79.5767 50.3125C79.8873 50.1723 80.2377 50.1023 80.6278 50.1023C81.0218 50.1023 81.3693 50.1714 81.6705 50.3097C81.9735 50.4479 82.2121 50.6383 82.3864 50.8807C82.5606 51.1212 82.6515 51.3977 82.6591 51.7102H81.8125ZM83.9476 56V50.1818H86.0215C86.4742 50.1818 86.8492 50.2642 87.1465 50.429C87.4439 50.5937 87.6664 50.8191 87.8141 51.1051C87.9618 51.3892 88.0357 51.7093 88.0357 52.0653C88.0357 52.4233 87.9609 52.7453 87.8113 53.0312C87.6636 53.3153 87.4401 53.5407 87.1408 53.7074C86.8435 53.8722 86.4694 53.9545 86.0187 53.9545H84.5925V53.2102H85.9391C86.2251 53.2102 86.4571 53.161 86.6351 53.0625C86.8132 52.9621 86.9439 52.8258 87.0272 52.6534C87.1105 52.4811 87.1522 52.285 87.1522 52.0653C87.1522 51.8456 87.1105 51.6506 87.0272 51.4801C86.9439 51.3097 86.8122 51.1761 86.6323 51.0795C86.4543 50.983 86.2194 50.9347 85.9278 50.9347H84.8255V56H83.9476ZM89.2248 56V50.1818H92.8726V50.9375H90.1027V52.7102H92.6822V53.4631H90.1027V55.2443H92.9066V56H89.2248ZM98.9012 50.1818V56H98.0943L95.137 51.733H95.083V56H94.2051V50.1818H95.0176L97.9779 54.4545H98.0318V50.1818H98.9012ZM102.225 56H100.342V50.1818H102.285C102.855 50.1818 103.345 50.2983 103.754 50.5312C104.163 50.7623 104.476 51.0947 104.694 51.5284C104.914 51.9602 105.024 52.4782 105.024 53.0824C105.024 53.6884 104.913 54.2093 104.691 54.6449C104.471 55.0805 104.153 55.4157 103.737 55.6506C103.32 55.8835 102.816 56 102.225 56ZM101.22 55.233H102.177C102.62 55.233 102.988 55.1496 103.282 54.983C103.576 54.8144 103.795 54.571 103.941 54.2528C104.087 53.9328 104.16 53.5426 104.16 53.0824C104.16 52.6259 104.087 52.2386 103.941 51.9205C103.797 51.6023 103.582 51.3608 103.296 51.196C103.01 51.0312 102.655 50.9489 102.231 50.9489H101.22V55.233ZM107.153 50.1818V56H106.275V50.1818H107.153ZM113.287 50.1818V56H112.481L109.523 51.733H109.469V56H108.591V50.1818H109.404L112.364 54.4545H112.418V50.1818H113.287ZM118.665 52.0199C118.611 51.8475 118.537 51.6932 118.444 51.5568C118.353 51.4186 118.244 51.3011 118.117 51.2045C117.99 51.1061 117.845 51.0312 117.682 50.9801C117.522 50.929 117.344 50.9034 117.151 50.9034C116.824 50.9034 116.528 50.9877 116.265 51.1562C116.002 51.3248 115.793 51.572 115.64 51.8977C115.488 52.2216 115.413 52.6184 115.413 53.0881C115.413 53.5597 115.489 53.9583 115.643 54.2841C115.796 54.6098 116.006 54.857 116.273 55.0256C116.54 55.1941 116.844 55.2784 117.185 55.2784C117.502 55.2784 117.777 55.214 118.012 55.0852C118.249 54.9564 118.432 54.7746 118.56 54.5398C118.691 54.303 118.756 54.0246 118.756 53.7045L118.984 53.7472H117.319V53.0227H119.606V53.6847C119.606 54.1733 119.502 54.5975 119.293 54.9574C119.087 55.3153 118.801 55.5919 118.435 55.7869C118.072 55.982 117.655 56.0795 117.185 56.0795C116.659 56.0795 116.197 55.9583 115.799 55.7159C115.403 55.4735 115.094 55.1297 114.873 54.6847C114.651 54.2377 114.54 53.7074 114.54 53.0938C114.54 52.6297 114.605 52.2131 114.734 51.8438C114.862 51.4744 115.043 51.161 115.276 50.9034C115.511 50.6439 115.787 50.446 116.103 50.3097C116.421 50.1714 116.769 50.1023 117.146 50.1023C117.46 50.1023 117.753 50.1487 118.023 50.2415C118.296 50.3343 118.539 50.4659 118.751 50.6364C118.965 50.8068 119.142 51.0095 119.282 51.2443C119.422 51.4773 119.517 51.7358 119.566 52.0199H118.665ZM127.99 52.0739H127.103C127.069 51.8845 127.006 51.7178 126.913 51.5739C126.82 51.4299 126.707 51.3078 126.572 51.2074C126.438 51.107 126.287 51.0312 126.12 50.9801C125.956 50.929 125.78 50.9034 125.595 50.9034C125.26 50.9034 124.959 50.9877 124.694 51.1562C124.431 51.3248 124.223 51.572 124.069 51.8977C123.918 52.2235 123.842 52.6212 123.842 53.0909C123.842 53.5644 123.918 53.964 124.069 54.2898C124.223 54.6155 124.432 54.8617 124.697 55.0284C124.962 55.1951 125.261 55.2784 125.592 55.2784C125.776 55.2784 125.95 55.2538 126.115 55.2045C126.281 55.1534 126.432 55.0786 126.566 54.9801C126.701 54.8816 126.815 54.7614 126.907 54.6193C127.002 54.4754 127.067 54.3106 127.103 54.125L127.99 54.1278C127.942 54.4138 127.851 54.6771 127.714 54.9176C127.58 55.1562 127.406 55.3627 127.194 55.5369C126.984 55.7093 126.744 55.8428 126.473 55.9375C126.202 56.0322 125.906 56.0795 125.586 56.0795C125.083 56.0795 124.634 55.9602 124.24 55.7216C123.846 55.4811 123.535 55.1373 123.308 54.6903C123.083 54.2434 122.97 53.7102 122.97 53.0909C122.97 52.4697 123.083 51.9366 123.311 51.4915C123.538 51.0445 123.849 50.7017 124.243 50.4631C124.636 50.2225 125.084 50.1023 125.586 50.1023C125.895 50.1023 126.183 50.1468 126.45 50.2358C126.719 50.3229 126.96 50.4517 127.174 50.6222C127.388 50.7907 127.565 50.9972 127.706 51.2415C127.846 51.4839 127.94 51.7614 127.99 52.0739ZM129.2 56V50.1818H130.078V52.7102H132.979V50.1818H133.859V56H132.979V53.4631H130.078V56H129.2ZM135.789 56H134.857L136.951 50.1818H137.965L140.059 56H139.127L137.482 51.2386H137.437L135.789 56ZM135.945 53.7216H138.968V54.4602H135.945V53.7216ZM141.059 56V50.1818H143.133C143.584 50.1818 143.958 50.2595 144.255 50.4148C144.554 50.5701 144.778 50.785 144.926 51.0597C145.073 51.3324 145.147 51.6477 145.147 52.0057C145.147 52.3617 145.072 52.6752 144.923 52.946C144.775 53.215 144.552 53.4242 144.252 53.5739C143.955 53.7235 143.581 53.7983 143.13 53.7983H141.559V53.0426H143.051C143.335 53.0426 143.566 53.0019 143.744 52.9205C143.924 52.839 144.055 52.7206 144.139 52.5653C144.222 52.41 144.264 52.2235 144.264 52.0057C144.264 51.786 144.221 51.5956 144.136 51.4347C144.053 51.2737 143.921 51.1506 143.741 51.0653C143.563 50.9782 143.329 50.9347 143.039 50.9347H141.937V56H141.059ZM143.931 53.375L145.369 56H144.369L142.96 53.375H143.931ZM146.089 50.9375V50.1818H150.591V50.9375H148.776V56H147.901V50.9375H146.089Z" fill="#A4A4A4"/>
<path d="M87.436 78.704C87.03 79.46 86.47 80.062 85.742 80.482C85.014 80.916 84.202 81.126 83.278 81.126C82.354 81.126 81.528 80.916 80.8 80.482C80.072 80.062 79.512 79.46 79.12 78.704C78.714 77.948 78.518 77.094 78.518 76.142C78.518 75.19 78.714 74.336 79.12 73.58C79.512 72.824 80.072 72.236 80.8 71.802C81.528 71.382 82.354 71.158 83.278 71.158C84.202 71.158 85.014 71.382 85.742 71.802C86.47 72.236 87.03 72.824 87.436 73.58C87.828 74.336 88.038 75.19 88.038 76.142C88.038 77.094 87.828 77.948 87.436 78.704ZM80.562 77.99C80.814 78.536 81.178 78.956 81.654 79.264C82.13 79.572 82.662 79.712 83.278 79.712C83.88 79.712 84.412 79.572 84.888 79.264C85.364 78.956 85.728 78.536 85.994 77.99C86.246 77.444 86.386 76.828 86.386 76.142C86.386 75.47 86.246 74.854 85.994 74.308C85.728 73.762 85.364 73.342 84.888 73.034C84.412 72.726 83.88 72.572 83.278 72.572C82.662 72.572 82.13 72.726 81.654 73.034C81.178 73.342 80.814 73.762 80.562 74.308C80.296 74.854 80.17 75.47 80.17 76.142C80.17 76.828 80.296 77.444 80.562 77.99ZM89.6467 73.538C90.0387 72.782 90.5847 72.208 91.2987 71.788C92.0127 71.368 92.8527 71.158 93.8047 71.158C94.5327 71.158 95.2047 71.298 95.7927 71.578C96.3807 71.858 96.8707 72.264 97.2487 72.782C97.6127 73.3 97.8507 73.902 97.9627 74.574H96.3527C96.1847 73.958 95.8767 73.468 95.4287 73.104C94.9667 72.754 94.4067 72.572 93.7347 72.572C93.1187 72.572 92.5867 72.726 92.1387 73.034C91.6767 73.342 91.3267 73.762 91.0887 74.294C90.8367 74.826 90.7247 75.442 90.7247 76.142C90.7247 76.842 90.8367 77.458 91.0887 77.99C91.3267 78.536 91.6767 78.956 92.1387 79.264C92.5867 79.572 93.1187 79.712 93.7347 79.712C94.4067 79.712 94.9667 79.544 95.4147 79.18C95.8627 78.83 96.1707 78.34 96.3387 77.71H97.9487C97.8367 78.41 97.5987 79.012 97.2347 79.516C96.8707 80.034 96.3947 80.426 95.8067 80.706C95.2187 80.986 94.5467 81.126 93.8047 81.126C92.8527 81.126 92.0127 80.93 91.2987 80.51C90.5847 80.104 90.0387 79.53 89.6467 78.774C89.2547 78.018 89.0727 77.15 89.0727 76.142C89.0727 75.162 89.2547 74.294 89.6467 73.538ZM98.2969 71.242H105.955V72.67H102.931V81.042H101.321V72.67H98.2969V71.242ZM114.999 78.704C114.593 79.46 114.033 80.062 113.305 80.482C112.577 80.916 111.765 81.126 110.841 81.126C109.917 81.126 109.091 80.916 108.363 80.482C107.635 80.062 107.075 79.46 106.683 78.704C106.277 77.948 106.081 77.094 106.081 76.142C106.081 75.19 106.277 74.336 106.683 73.58C107.075 72.824 107.635 72.236 108.363 71.802C109.091 71.382 109.917 71.158 110.841 71.158C111.765 71.158 112.577 71.382 113.305 71.802C114.033 72.236 114.593 72.824 114.999 73.58C115.391 74.336 115.601 75.19 115.601 76.142C115.601 77.094 115.391 77.948 114.999 78.704ZM108.125 77.99C108.377 78.536 108.741 78.956 109.217 79.264C109.693 79.572 110.225 79.712 110.841 79.712C111.443 79.712 111.975 79.572 112.451 79.264C112.927 78.956 113.291 78.536 113.557 77.99C113.809 77.444 113.949 76.828 113.949 76.142C113.949 75.47 113.809 74.854 113.557 74.308C113.291 73.762 112.927 73.342 112.451 73.034C111.975 72.726 111.443 72.572 110.841 72.572C110.225 72.572 109.693 72.726 109.217 73.034C108.741 73.342 108.377 73.762 108.125 74.308C107.859 74.854 107.733 75.47 107.733 76.142C107.733 76.828 107.859 77.444 108.125 77.99ZM120.611 71.242C121.675 71.242 122.515 71.466 123.103 71.914C123.691 72.362 123.999 72.992 123.999 73.79C123.999 74.378 123.831 74.868 123.523 75.246C123.215 75.624 122.767 75.876 122.179 76.002C123.635 76.254 124.377 77.024 124.377 78.312C124.377 79.166 124.055 79.838 123.425 80.314C122.795 80.804 121.899 81.042 120.737 81.042H117.013V71.242H120.611ZM118.623 75.4H120.653C121.199 75.4 121.619 75.274 121.927 75.022C122.235 74.77 122.389 74.434 122.389 73.986C122.389 73.552 122.235 73.216 121.927 72.964C121.619 72.712 121.199 72.586 120.653 72.586H118.623V75.4ZM118.623 79.684H120.751C121.381 79.684 121.871 79.558 122.207 79.306C122.543 79.054 122.725 78.69 122.725 78.228C122.725 77.752 122.543 77.388 122.207 77.122C121.857 76.87 121.367 76.73 120.751 76.73H118.623V79.684ZM125.873 71.242H132.271V72.67H127.483V75.386H131.431V76.772H127.483V79.614H132.439V81.042H125.873V71.242ZM137.625 71.242C138.297 71.242 138.899 71.382 139.417 71.634C139.921 71.886 140.327 72.25 140.607 72.726C140.887 73.202 141.041 73.748 141.041 74.364C141.041 75.022 140.859 75.596 140.523 76.086C140.173 76.59 139.711 76.94 139.137 77.136L141.209 81.042H139.417L137.555 77.486H135.371V81.042H133.761V71.242H137.625ZM135.371 76.086H137.499C138.073 76.086 138.535 75.932 138.871 75.624C139.207 75.316 139.389 74.896 139.389 74.364C139.389 73.846 139.207 73.426 138.871 73.118C138.535 72.81 138.073 72.642 137.499 72.642H135.371V76.086ZM149.047 71.242V81.042H147.507V74.42C147.367 74.504 147.157 74.546 146.891 74.546H145.281V73.23H146.821C147.045 73.23 147.227 73.146 147.353 72.978C147.465 72.81 147.535 72.6 147.535 72.32V71.242H149.047ZM150.178 71.242H157.22V72.278L152.628 81.042H150.948L155.512 72.6H150.178V71.242ZM158.692 79.698C158.916 80.006 159.042 80.398 159.042 80.846C159.042 81.518 158.832 82.05 158.44 82.414C158.034 82.792 157.488 82.988 156.788 82.988V82.176C157.194 82.176 157.502 82.064 157.712 81.854C157.908 81.658 158.02 81.406 158.02 81.126C158.02 81.042 158.006 80.986 158.006 80.944C157.88 81.042 157.726 81.084 157.544 81.084C157.292 81.084 157.096 81.014 156.942 80.86C156.788 80.706 156.718 80.482 156.718 80.188C156.718 79.922 156.816 79.698 157.012 79.516C157.208 79.334 157.46 79.236 157.782 79.236C158.146 79.236 158.454 79.39 158.692 79.698ZM167.309 76.59C167.813 76.17 168.205 75.778 168.457 75.414C168.709 75.05 168.849 74.658 168.849 74.224C168.849 73.678 168.681 73.244 168.345 72.936C168.009 72.628 167.547 72.474 166.973 72.474C166.413 72.474 165.951 72.656 165.615 73.02C165.279 73.384 165.111 73.86 165.111 74.448V74.63H163.557V74.364C163.557 73.748 163.697 73.202 163.977 72.712C164.257 72.236 164.663 71.844 165.181 71.564C165.685 71.284 166.287 71.144 166.973 71.144C168.065 71.144 168.905 71.424 169.521 71.97C170.123 72.516 170.431 73.244 170.431 74.154C170.431 74.826 170.249 75.4 169.913 75.904C169.563 76.408 169.045 76.94 168.359 77.514L165.755 79.684H170.487V81.042H163.543V79.796L167.309 76.59ZM171.625 75.918C171.625 74.994 171.779 74.168 172.101 73.44C172.423 72.712 172.885 72.152 173.473 71.76C174.061 71.368 174.733 71.158 175.489 71.158C176.231 71.158 176.889 71.368 177.477 71.76C178.065 72.152 178.513 72.712 178.849 73.44C179.171 74.168 179.339 74.994 179.339 75.918V76.366C179.339 77.346 179.171 78.186 178.849 78.9C178.527 79.628 178.079 80.174 177.491 80.552C176.903 80.944 176.245 81.126 175.489 81.126C174.719 81.126 174.047 80.944 173.459 80.552C172.871 80.174 172.423 79.628 172.101 78.9C171.779 78.186 171.625 77.346 171.625 76.366V75.918ZM177.155 73.44C176.735 72.824 176.189 72.516 175.489 72.516C174.789 72.516 174.229 72.824 173.809 73.44C173.389 74.056 173.179 74.896 173.179 75.974V76.31C173.179 77.402 173.389 78.242 173.809 78.858C174.229 79.474 174.789 79.768 175.489 79.768C176.189 79.768 176.735 79.474 177.155 78.858C177.575 78.242 177.785 77.402 177.785 76.31V75.974C177.785 74.896 177.575 74.056 177.155 73.44ZM184.18 76.59C184.684 76.17 185.076 75.778 185.328 75.414C185.58 75.05 185.72 74.658 185.72 74.224C185.72 73.678 185.552 73.244 185.216 72.936C184.88 72.628 184.418 72.474 183.844 72.474C183.284 72.474 182.822 72.656 182.486 73.02C182.15 73.384 181.982 73.86 181.982 74.448V74.63H180.428V74.364C180.428 73.748 180.568 73.202 180.848 72.712C181.128 72.236 181.534 71.844 182.052 71.564C182.556 71.284 183.158 71.144 183.844 71.144C184.936 71.144 185.776 71.424 186.392 71.97C186.994 72.516 187.302 73.244 187.302 74.154C187.302 74.826 187.12 75.4 186.784 75.904C186.434 76.408 185.916 76.94 185.23 77.514L182.626 79.684H187.358V81.042H180.414V79.796L184.18 76.59ZM188.038 77.458L192.7 71.242H194.576V77.43H196.06V78.774H194.576V81.042H193.05V78.774H188.038V77.458ZM189.592 77.43H193.05V72.838L189.592 77.43Z" fill="black"/>
<path d="M78.135 97.569H79.665L82.755 102.789L85.89 97.569H87.36L83.4 104.199V108.084H82.095V104.199L78.135 97.569ZM88.5079 107.679C87.9379 107.349 87.4879 106.899 87.1729 106.299C86.8429 105.714 86.6929 105.039 86.6929 104.259C86.6929 103.494 86.8429 102.819 87.1729 102.219C87.4879 101.634 87.9379 101.169 88.5079 100.839C89.0779 100.509 89.7379 100.344 90.4879 100.344C91.2229 100.344 91.8829 100.509 92.4529 100.839C93.0229 101.169 93.4729 101.634 93.8029 102.219C94.1179 102.819 94.2829 103.494 94.2829 104.259C94.2829 105.039 94.1179 105.714 93.8029 106.299C93.4729 106.899 93.0229 107.349 92.4529 107.679C91.8829 108.009 91.2229 108.174 90.4879 108.174C89.7379 108.174 89.0779 108.009 88.5079 107.679ZM91.8079 106.719C92.1979 106.479 92.4979 106.149 92.7079 105.714C92.9179 105.294 93.0229 104.799 93.0229 104.259C93.0229 103.719 92.9179 103.239 92.7079 102.804C92.4979 102.384 92.1979 102.039 91.8079 101.799C91.4179 101.559 90.9829 101.439 90.4879 101.439C89.9779 101.439 89.5429 101.559 89.1529 101.799C88.7629 102.039 88.4779 102.384 88.2679 102.804C88.0579 103.239 87.9529 103.719 87.9529 104.259C87.9529 104.799 88.0579 105.294 88.2679 105.714C88.4779 106.149 88.7629 106.479 89.1529 106.719C89.5429 106.959 89.9779 107.079 90.4879 107.079C90.9829 107.079 91.4179 106.959 91.8079 106.719ZM101.978 100.434V108.084H100.913L100.748 107.064C100.163 107.814 99.3533 108.174 98.3033 108.174C97.3883 108.174 96.6533 107.904 96.1133 107.334C95.5583 106.779 95.2883 105.894 95.2883 104.694V100.434H96.5183V104.619C96.5183 105.414 96.6833 106.014 97.0283 106.434C97.3733 106.854 97.8683 107.049 98.5133 107.049C99.2033 107.049 99.7583 106.809 100.148 106.299C100.538 105.804 100.748 105.129 100.748 104.259V100.434H101.978ZM107.24 100.434V101.634H106.625C105.89 101.634 105.365 101.889 105.05 102.369C104.735 102.864 104.585 103.464 104.585 104.184V108.084H103.355V100.434H104.42L104.585 101.589C104.795 101.244 105.08 100.959 105.44 100.749C105.785 100.539 106.265 100.434 106.895 100.434H107.24ZM112.651 105.564C112.666 106.029 112.861 106.404 113.251 106.689C113.641 106.989 114.136 107.124 114.751 107.124C115.291 107.124 115.726 107.019 116.056 106.809C116.386 106.599 116.566 106.314 116.566 105.954C116.566 105.654 116.476 105.429 116.326 105.264C116.161 105.114 115.951 104.994 115.696 104.934C115.441 104.874 115.081 104.814 114.616 104.754C113.956 104.679 113.416 104.574 112.996 104.439C112.576 104.319 112.231 104.109 111.976 103.824C111.706 103.539 111.586 103.149 111.586 102.639C111.586 102.189 111.706 101.799 111.961 101.439C112.216 101.094 112.561 100.824 113.011 100.629C113.446 100.434 113.941 100.329 114.496 100.329C115.396 100.329 116.116 100.539 116.686 100.959C117.256 101.379 117.571 101.979 117.631 102.759H116.401C116.341 102.369 116.146 102.039 115.816 101.769C115.471 101.514 115.051 101.379 114.541 101.379C114.016 101.379 113.596 101.499 113.281 101.709C112.951 101.919 112.801 102.204 112.801 102.549C112.801 102.819 112.876 103.014 113.026 103.149C113.176 103.299 113.356 103.389 113.596 103.434C113.836 103.494 114.196 103.539 114.676 103.599C115.336 103.689 115.891 103.794 116.326 103.929C116.761 104.079 117.106 104.304 117.376 104.604C117.646 104.919 117.781 105.339 117.781 105.864C117.781 106.329 117.646 106.734 117.376 107.079C117.106 107.439 116.731 107.709 116.281 107.889C115.816 108.084 115.306 108.174 114.751 108.174C113.746 108.174 112.936 107.949 112.336 107.484C111.736 107.034 111.421 106.389 111.421 105.564H112.651ZM124.621 100.809C125.176 101.124 125.611 101.574 125.926 102.159C126.241 102.759 126.406 103.449 126.406 104.259C126.406 105.039 126.241 105.714 125.926 106.299C125.611 106.899 125.176 107.349 124.621 107.679C124.051 108.009 123.421 108.174 122.731 108.174C122.101 108.174 121.576 108.069 121.141 107.844C120.691 107.619 120.346 107.304 120.106 106.914V111.084H118.876V100.434H119.941L120.106 101.664C120.736 100.794 121.621 100.344 122.731 100.344C123.436 100.344 124.066 100.509 124.621 100.809ZM124.441 106.299C124.906 105.774 125.146 105.099 125.146 104.259C125.146 103.434 124.906 102.759 124.441 102.234C123.976 101.709 123.361 101.439 122.611 101.439C122.116 101.439 121.681 101.559 121.291 101.799C120.901 102.039 120.616 102.369 120.406 102.789C120.196 103.209 120.091 103.689 120.091 104.229C120.091 104.784 120.196 105.279 120.406 105.714C120.616 106.149 120.901 106.479 121.291 106.719C121.681 106.959 122.116 107.079 122.611 107.079C123.361 107.079 123.976 106.824 124.441 106.299ZM127.691 102.204C127.991 101.619 128.426 101.169 128.981 100.839C129.521 100.509 130.151 100.344 130.871 100.344C131.561 100.344 132.191 100.494 132.731 100.779C133.271 101.079 133.691 101.499 134.006 102.039C134.306 102.594 134.471 103.239 134.501 103.974C134.501 104.094 134.486 104.259 134.471 104.499H128.531V104.604C128.546 105.354 128.771 105.954 129.221 106.404C129.656 106.854 130.226 107.079 130.946 107.079C131.486 107.079 131.951 106.944 132.341 106.674C132.731 106.404 132.986 106.014 133.121 105.519H134.366C134.216 106.299 133.841 106.944 133.241 107.439C132.641 107.934 131.906 108.174 131.036 108.174C130.271 108.174 129.611 108.024 129.041 107.694C128.471 107.364 128.021 106.914 127.706 106.314C127.391 105.714 127.241 105.039 127.241 104.259C127.241 103.479 127.391 102.804 127.691 102.204ZM133.226 103.479C133.166 102.834 132.911 102.324 132.491 101.964C132.071 101.604 131.531 101.424 130.886 101.424C130.301 101.424 129.791 101.619 129.356 101.994C128.906 102.384 128.666 102.879 128.606 103.479H133.226ZM141.59 101.184C142.16 101.754 142.445 102.624 142.445 103.824V108.084H141.215V103.899C141.215 103.119 141.035 102.519 140.675 102.099C140.315 101.679 139.805 101.469 139.145 101.469C138.425 101.469 137.855 101.724 137.45 102.219C137.03 102.729 136.835 103.404 136.835 104.259V108.084H135.605V100.434H136.67L136.835 101.469C137.405 100.719 138.245 100.344 139.355 100.344C140.285 100.344 141.02 100.629 141.59 101.184ZM150.973 97.584V108.084H149.908L149.743 106.854C149.098 107.739 148.228 108.174 147.118 108.174C146.398 108.174 145.768 108.024 145.213 107.709C144.658 107.409 144.223 106.959 143.908 106.359C143.593 105.774 143.443 105.069 143.443 104.259C143.443 103.494 143.593 102.819 143.908 102.219C144.223 101.634 144.658 101.169 145.228 100.839C145.783 100.509 146.413 100.344 147.118 100.344C147.733 100.344 148.258 100.464 148.708 100.689C149.143 100.914 149.488 101.214 149.743 101.604V97.584H150.973ZM148.543 106.734C148.933 106.494 149.233 106.164 149.443 105.744C149.653 105.324 149.758 104.829 149.758 104.289C149.758 103.749 149.653 103.254 149.443 102.819C149.233 102.384 148.933 102.039 148.543 101.799C148.153 101.559 147.718 101.439 147.238 101.439C146.473 101.439 145.858 101.709 145.393 102.234C144.928 102.759 144.703 103.434 144.703 104.259C144.703 105.099 144.928 105.774 145.393 106.299C145.858 106.824 146.473 107.079 147.238 107.079C147.718 107.079 148.153 106.974 148.543 106.734ZM153.534 97.704C153.684 97.854 153.759 98.049 153.759 98.274C153.759 98.514 153.684 98.694 153.534 98.844C153.384 98.994 153.189 99.069 152.964 99.069C152.724 99.069 152.544 98.994 152.394 98.844C152.244 98.694 152.169 98.514 152.169 98.274C152.169 98.049 152.244 97.854 152.394 97.704C152.544 97.554 152.724 97.479 152.964 97.479C153.189 97.479 153.384 97.554 153.534 97.704ZM152.349 100.434H153.579V108.084H152.349V100.434ZM160.949 101.184C161.519 101.754 161.804 102.624 161.804 103.824V108.084H160.574V103.899C160.574 103.119 160.394 102.519 160.034 102.099C159.674 101.679 159.164 101.469 158.504 101.469C157.784 101.469 157.214 101.724 156.809 102.219C156.389 102.729 156.194 103.404 156.194 104.259V108.084H154.964V100.434H156.029L156.194 101.469C156.764 100.719 157.604 100.344 158.714 100.344C159.644 100.344 160.379 100.629 160.949 101.184ZM170.332 100.434V107.709C170.332 110.019 169.057 111.174 166.537 111.174C165.547 111.174 164.737 110.949 164.107 110.499C163.477 110.049 163.117 109.419 163.027 108.579H164.287C164.377 109.059 164.632 109.434 165.052 109.689C165.457 109.959 165.982 110.079 166.627 110.079C168.277 110.079 169.102 109.284 169.102 107.664V106.764C168.547 107.709 167.677 108.174 166.477 108.174C165.757 108.174 165.127 108.024 164.572 107.709C164.017 107.409 163.582 106.959 163.267 106.359C162.952 105.774 162.802 105.069 162.802 104.259C162.802 103.494 162.952 102.819 163.267 102.219C163.582 101.634 164.017 101.169 164.587 100.839C165.142 100.509 165.772 100.344 166.477 100.344C167.092 100.344 167.617 100.479 168.067 100.719C168.502 100.959 168.847 101.304 169.102 101.754L169.267 100.434H170.332ZM167.902 106.734C168.292 106.494 168.592 106.164 168.802 105.744C169.012 105.324 169.117 104.829 169.117 104.289C169.117 103.749 169.012 103.254 168.802 102.819C168.592 102.384 168.292 102.039 167.902 101.799C167.512 101.559 167.077 101.439 166.597 101.439C165.832 101.439 165.217 101.709 164.752 102.234C164.287 102.759 164.062 103.434 164.062 104.259C164.062 105.099 164.287 105.774 164.752 106.299C165.217 106.824 165.832 107.079 166.597 107.079C167.077 107.079 167.512 106.974 167.902 106.734ZM179.218 100.434V101.634H178.603C177.868 101.634 177.343 101.889 177.028 102.369C176.713 102.864 176.563 103.464 176.563 104.184V108.084H175.333V100.434H176.398L176.563 101.589C176.773 101.244 177.058 100.959 177.418 100.749C177.763 100.539 178.243 100.434 178.873 100.434H179.218ZM186.832 106.959V108.084H186.157C185.662 108.084 185.317 107.994 185.107 107.784C184.897 107.589 184.777 107.289 184.777 106.899C184.177 107.754 183.322 108.174 182.212 108.174C181.357 108.174 180.667 107.979 180.157 107.574C179.647 107.184 179.392 106.629 179.392 105.939C179.392 105.174 179.647 104.589 180.172 104.169C180.697 103.764 181.462 103.554 182.467 103.554H184.717V103.029C184.717 102.534 184.537 102.144 184.207 101.859C183.877 101.589 183.412 101.439 182.812 101.439C182.272 101.439 181.837 101.559 181.492 101.799C181.147 102.039 180.937 102.339 180.862 102.729H179.632C179.722 101.979 180.052 101.394 180.622 100.974C181.192 100.554 181.942 100.344 182.872 100.344C183.847 100.344 184.597 100.584 185.137 101.064C185.677 101.544 185.947 102.219 185.947 103.104V106.404C185.947 106.779 186.112 106.959 186.457 106.959H186.832ZM184.717 104.589H182.347C181.207 104.589 180.637 105.024 180.637 105.864C180.637 106.254 180.787 106.554 181.087 106.779C181.387 107.019 181.792 107.124 182.302 107.124C183.052 107.124 183.637 106.929 184.072 106.539C184.492 106.149 184.717 105.624 184.717 104.964V104.589ZM187.987 101.559H186.607V100.434H187.987V98.289H189.217V100.434H191.152V101.559H189.217V106.074C189.217 106.404 189.277 106.629 189.397 106.764C189.517 106.899 189.742 106.959 190.057 106.959H191.392V108.084H189.982C189.262 108.084 188.737 107.934 188.437 107.604C188.137 107.289 187.987 106.779 187.987 106.089V101.559ZM191.957 102.204C192.257 101.619 192.692 101.169 193.247 100.839C193.787 100.509 194.417 100.344 195.137 100.344C195.827 100.344 196.457 100.494 196.997 100.779C197.537 101.079 197.957 101.499 198.272 102.039C198.572 102.594 198.737 103.239 198.767 103.974C198.767 104.094 198.752 104.259 198.737 104.499H192.797V104.604C192.812 105.354 193.037 105.954 193.487 106.404C193.922 106.854 194.492 107.079 195.212 107.079C195.752 107.079 196.217 106.944 196.607 106.674C196.997 106.404 197.252 106.014 197.387 105.519H198.632C198.482 106.299 198.107 106.944 197.507 107.439C196.907 107.934 196.172 108.174 195.302 108.174C194.537 108.174 193.877 108.024 193.307 107.694C192.737 107.364 192.287 106.914 191.972 106.314C191.657 105.714 191.507 105.039 191.507 104.259C191.507 103.479 191.657 102.804 191.957 102.204ZM197.492 103.479C197.432 102.834 197.177 102.324 196.757 101.964C196.337 101.604 195.797 101.424 195.152 101.424C194.567 101.424 194.057 101.619 193.622 101.994C193.172 102.384 192.932 102.879 192.872 103.479H197.492ZM202.776 100.434H204.066L205.971 106.659L207.981 100.434H209.121L211.026 106.659L213.021 100.434H214.266L211.716 108.084H210.366L208.521 102.399L206.601 108.084L205.251 108.099L202.776 100.434ZM214.89 102.204C215.19 101.619 215.625 101.169 216.18 100.839C216.72 100.509 217.35 100.344 218.07 100.344C218.76 100.344 219.39 100.494 219.93 100.779C220.47 101.079 220.89 101.499 221.205 102.039C221.505 102.594 221.67 103.239 221.7 103.974C221.7 104.094 221.685 104.259 221.67 104.499H215.73V104.604C215.745 105.354 215.97 105.954 216.42 106.404C216.855 106.854 217.425 107.079 218.145 107.079C218.685 107.079 219.15 106.944 219.54 106.674C219.93 106.404 220.185 106.014 220.32 105.519H221.565C221.415 106.299 221.04 106.944 220.44 107.439C219.84 107.934 219.105 108.174 218.235 108.174C217.47 108.174 216.81 108.024 216.24 107.694C215.67 107.364 215.22 106.914 214.905 106.314C214.59 105.714 214.44 105.039 214.44 104.259C214.44 103.479 214.59 102.804 214.89 102.204ZM220.425 103.479C220.365 102.834 220.11 102.324 219.69 101.964C219.27 101.604 218.73 101.424 218.085 101.424C217.5 101.424 216.99 101.619 216.555 101.994C216.105 102.384 215.865 102.879 215.805 103.479H220.425ZM228.789 101.184C229.359 101.754 229.644 102.624 229.644 103.824V108.084H228.414V103.899C228.414 103.119 228.234 102.519 227.874 102.099C227.514 101.679 227.004 101.469 226.344 101.469C225.624 101.469 225.054 101.724 224.649 102.219C224.229 102.729 224.034 103.404 224.034 104.259V108.084H222.804V100.434H223.869L224.034 101.469C224.604 100.719 225.444 100.344 226.554 100.344C227.484 100.344 228.219 100.629 228.789 101.184ZM231.422 101.559H230.042V100.434H231.422V98.289H232.652V100.434H234.587V101.559H232.652V106.074C232.652 106.404 232.712 106.629 232.832 106.764C232.952 106.899 233.177 106.959 233.492 106.959H234.827V108.084H233.417C232.697 108.084 232.172 107.934 231.872 107.604C231.572 107.289 231.422 106.779 231.422 106.089V101.559ZM245.613 100.434V108.084H244.548L244.383 107.064C243.798 107.814 242.988 108.174 241.938 108.174C241.023 108.174 240.288 107.904 239.748 107.334C239.193 106.779 238.923 105.894 238.923 104.694V100.434H240.153V104.619C240.153 105.414 240.318 106.014 240.663 106.434C241.008 106.854 241.503 107.049 242.148 107.049C242.838 107.049 243.393 106.809 243.783 106.299C244.173 105.804 244.383 105.129 244.383 104.259V100.434H245.613ZM252.734 100.809C253.289 101.124 253.724 101.574 254.039 102.159C254.354 102.759 254.519 103.449 254.519 104.259C254.519 105.039 254.354 105.714 254.039 106.299C253.724 106.899 253.289 107.349 252.734 107.679C252.164 108.009 251.534 108.174 250.844 108.174C250.214 108.174 249.689 108.069 249.254 107.844C248.804 107.619 248.459 107.304 248.219 106.914V111.084H246.989V100.434H248.054L248.219 101.664C248.849 100.794 249.734 100.344 250.844 100.344C251.549 100.344 252.179 100.509 252.734 100.809ZM252.554 106.299C253.019 105.774 253.259 105.099 253.259 104.259C253.259 103.434 253.019 102.759 252.554 102.234C252.089 101.709 251.474 101.439 250.724 101.439C250.229 101.439 249.794 101.559 249.404 101.799C249.014 102.039 248.729 102.369 248.519 102.789C248.309 103.209 248.204 103.689 248.204 104.229C248.204 104.784 248.309 105.279 248.519 105.714C248.729 106.149 249.014 106.479 249.404 106.719C249.794 106.959 250.229 107.079 250.724 107.079C251.474 107.079 252.089 106.824 252.554 106.299ZM260.436 97.704C260.586 97.854 260.661 98.049 260.661 98.274C260.661 98.514 260.586 98.694 260.436 98.844C260.286 98.994 260.091 99.069 259.866 99.069C259.626 99.069 259.446 98.994 259.296 98.844C259.146 98.694 259.071 98.514 259.071 98.274C259.071 98.049 259.146 97.854 259.296 97.704C259.446 97.554 259.626 97.479 259.866 97.479C260.091 97.479 260.286 97.554 260.436 97.704ZM259.251 100.434H260.481V108.084H259.251V100.434ZM267.851 101.184C268.421 101.754 268.706 102.624 268.706 103.824V108.084H267.476V103.899C267.476 103.119 267.296 102.519 266.936 102.099C266.576 101.679 266.066 101.469 265.406 101.469C264.686 101.469 264.116 101.724 263.711 102.219C263.291 102.729 263.096 103.404 263.096 104.259V108.084H261.866V100.434H262.931L263.096 101.469C263.666 100.719 264.506 100.344 265.616 100.344C266.546 100.344 267.281 100.629 267.851 101.184ZM274.11 101.559H272.73V100.434H274.11V98.289H275.34V100.434H277.275V101.559H275.34V106.074C275.34 106.404 275.4 106.629 275.52 106.764C275.64 106.899 275.865 106.959 276.18 106.959H277.515V108.084H276.105C275.385 108.084 274.86 107.934 274.56 107.604C274.26 107.289 274.11 106.779 274.11 106.089V101.559ZM284.09 101.184C284.66 101.754 284.945 102.624 284.945 103.824V108.084H283.715V103.899C283.715 103.119 283.535 102.519 283.175 102.099C282.815 101.679 282.29 101.469 281.63 101.469C280.91 101.469 280.355 101.724 279.935 102.219C279.515 102.729 279.32 103.404 279.32 104.259V108.084H278.09V97.584H279.32V101.694C279.56 101.304 279.89 100.974 280.31 100.719C280.73 100.479 281.24 100.344 281.84 100.344C282.77 100.344 283.52 100.629 284.09 101.184ZM286.393 102.204C286.693 101.619 287.128 101.169 287.683 100.839C288.223 100.509 288.853 100.344 289.573 100.344C290.263 100.344 290.893 100.494 291.433 100.779C291.973 101.079 292.393 101.499 292.708 102.039C293.008 102.594 293.173 103.239 293.203 103.974C293.203 104.094 293.188 104.259 293.173 104.499H287.233V104.604C287.248 105.354 287.473 105.954 287.923 106.404C288.358 106.854 288.928 107.079 289.648 107.079C290.188 107.079 290.653 106.944 291.043 106.674C291.433 106.404 291.688 106.014 291.823 105.519H293.068C292.918 106.299 292.543 106.944 291.943 107.439C291.343 107.934 290.608 108.174 289.738 108.174C288.973 108.174 288.313 108.024 287.743 107.694C287.173 107.364 286.723 106.914 286.408 106.314C286.093 105.714 285.943 105.039 285.943 104.259C285.943 103.479 286.093 102.804 286.393 102.204ZM291.928 103.479C291.868 102.834 291.613 102.324 291.193 101.964C290.773 101.604 290.233 101.424 289.588 101.424C289.003 101.424 288.493 101.619 288.058 101.994C287.608 102.384 287.368 102.879 287.308 103.479H291.928ZM84.585 118.809C85.14 119.124 85.575 119.574 85.89 120.159C86.205 120.759 86.37 121.449 86.37 122.259C86.37 123.039 86.205 123.714 85.89 124.299C85.575 124.899 85.14 125.349 84.585 125.679C84.015 126.009 83.385 126.174 82.695 126.174C82.065 126.174 81.54 126.069 81.105 125.844C80.655 125.619 80.31 125.304 80.07 124.914V129.084H78.84V118.434H79.905L80.07 119.664C80.7 118.794 81.585 118.344 82.695 118.344C83.4 118.344 84.03 118.509 84.585 118.809ZM84.405 124.299C84.87 123.774 85.11 123.099 85.11 122.259C85.11 121.434 84.87 120.759 84.405 120.234C83.94 119.709 83.325 119.439 82.575 119.439C82.08 119.439 81.645 119.559 81.255 119.799C80.865 120.039 80.58 120.369 80.37 120.789C80.16 121.209 80.055 121.689 80.055 122.229C80.055 122.784 80.16 123.279 80.37 123.714C80.58 124.149 80.865 124.479 81.255 124.719C81.645 124.959 82.08 125.079 82.575 125.079C83.325 125.079 83.94 124.824 84.405 124.299ZM94.6305 124.959V126.084H93.9555C93.4605 126.084 93.1155 125.994 92.9055 125.784C92.6955 125.589 92.5755 125.289 92.5755 124.899C91.9755 125.754 91.1205 126.174 90.0105 126.174C89.1555 126.174 88.4655 125.979 87.9555 125.574C87.4455 125.184 87.1905 124.629 87.1905 123.939C87.1905 123.174 87.4455 122.589 87.9705 122.169C88.4955 121.764 89.2605 121.554 90.2655 121.554H92.5155V121.029C92.5155 120.534 92.3355 120.144 92.0055 119.859C91.6755 119.589 91.2105 119.439 90.6105 119.439C90.0705 119.439 89.6355 119.559 89.2905 119.799C88.9455 120.039 88.7355 120.339 88.6605 120.729H87.4305C87.5205 119.979 87.8505 119.394 88.4205 118.974C88.9905 118.554 89.7405 118.344 90.6705 118.344C91.6455 118.344 92.3955 118.584 92.9355 119.064C93.4755 119.544 93.7455 120.219 93.7455 121.104V124.404C93.7455 124.779 93.9105 124.959 94.2555 124.959H94.6305ZM92.5155 122.589H90.1455C89.0055 122.589 88.4355 123.024 88.4355 123.864C88.4355 124.254 88.5855 124.554 88.8855 124.779C89.1855 125.019 89.5905 125.124 90.1005 125.124C90.8505 125.124 91.4355 124.929 91.8705 124.539C92.2905 124.149 92.5155 123.624 92.5155 122.964V122.589ZM96.2361 123.564C96.2511 124.029 96.4461 124.404 96.8361 124.689C97.2261 124.989 97.7211 125.124 98.3361 125.124C98.8761 125.124 99.3111 125.019 99.6411 124.809C99.9711 124.599 100.151 124.314 100.151 123.954C100.151 123.654 100.061 123.429 99.9111 123.264C99.7461 123.114 99.5361 122.994 99.2811 122.934C99.0261 122.874 98.6661 122.814 98.2011 122.754C97.5411 122.679 97.0011 122.574 96.5811 122.439C96.1611 122.319 95.8161 122.109 95.5611 121.824C95.2911 121.539 95.1711 121.149 95.1711 120.639C95.1711 120.189 95.2911 119.799 95.5461 119.439C95.8011 119.094 96.1461 118.824 96.5961 118.629C97.0311 118.434 97.5261 118.329 98.0811 118.329C98.9811 118.329 99.7011 118.539 100.271 118.959C100.841 119.379 101.156 119.979 101.216 120.759H99.9861C99.9261 120.369 99.7311 120.039 99.4011 119.769C99.0561 119.514 98.6361 119.379 98.1261 119.379C97.6011 119.379 97.1811 119.499 96.8661 119.709C96.5361 119.919 96.3861 120.204 96.3861 120.549C96.3861 120.819 96.4611 121.014 96.6111 121.149C96.7611 121.299 96.9411 121.389 97.1811 121.434C97.4211 121.494 97.7811 121.539 98.2611 121.599C98.9211 121.689 99.4761 121.794 99.9111 121.929C100.346 122.079 100.691 122.304 100.961 122.604C101.231 122.919 101.366 123.339 101.366 123.864C101.366 124.329 101.231 124.734 100.961 125.079C100.691 125.439 100.316 125.709 99.8661 125.889C99.4011 126.084 98.8911 126.174 98.3361 126.174C97.3311 126.174 96.5211 125.949 95.9211 125.484C95.3211 125.034 95.0061 124.389 95.0061 123.564H96.2361ZM102.971 119.559H101.591V118.434H102.971V116.289H104.201V118.434H106.136V119.559H104.201V124.074C104.201 124.404 104.261 124.629 104.381 124.764C104.501 124.899 104.726 124.959 105.041 124.959H106.376V126.084H104.966C104.246 126.084 103.721 125.934 103.421 125.604C103.121 125.289 102.971 124.779 102.971 124.089V119.559ZM116.277 125.454C115.677 125.934 114.927 126.174 114.027 126.174C113.277 126.174 112.632 126.009 112.077 125.679C111.507 125.349 111.072 124.899 110.772 124.299C110.457 123.699 110.307 123.024 110.307 122.244C110.307 121.479 110.457 120.804 110.772 120.204C111.087 119.619 111.537 119.169 112.107 118.839C112.677 118.509 113.322 118.344 114.072 118.344C114.972 118.344 115.707 118.584 116.292 119.064C116.877 119.544 117.252 120.204 117.402 121.044H116.157C116.037 120.564 115.782 120.174 115.407 119.874C115.017 119.589 114.567 119.439 114.027 119.439C113.292 119.439 112.692 119.709 112.242 120.219C111.792 120.744 111.567 121.419 111.567 122.244C111.567 123.084 111.792 123.774 112.242 124.299C112.692 124.824 113.292 125.079 114.027 125.079C114.582 125.079 115.047 124.944 115.437 124.644C115.812 124.359 116.052 123.954 116.172 123.444H117.402C117.237 124.299 116.862 124.974 116.277 125.454ZM119.908 125.679C119.338 125.349 118.888 124.899 118.573 124.299C118.243 123.714 118.093 123.039 118.093 122.259C118.093 121.494 118.243 120.819 118.573 120.219C118.888 119.634 119.338 119.169 119.908 118.839C120.478 118.509 121.138 118.344 121.888 118.344C122.623 118.344 123.283 118.509 123.853 118.839C124.423 119.169 124.873 119.634 125.203 120.219C125.518 120.819 125.683 121.494 125.683 122.259C125.683 123.039 125.518 123.714 125.203 124.299C124.873 124.899 124.423 125.349 123.853 125.679C123.283 126.009 122.623 126.174 121.888 126.174C121.138 126.174 120.478 126.009 119.908 125.679ZM123.208 124.719C123.598 124.479 123.898 124.149 124.108 123.714C124.318 123.294 124.423 122.799 124.423 122.259C124.423 121.719 124.318 121.239 124.108 120.804C123.898 120.384 123.598 120.039 123.208 119.799C122.818 119.559 122.383 119.439 121.888 119.439C121.378 119.439 120.943 119.559 120.553 119.799C120.163 120.039 119.878 120.384 119.668 120.804C119.458 121.239 119.353 121.719 119.353 122.259C119.353 122.799 119.458 123.294 119.668 123.714C119.878 124.149 120.163 124.479 120.553 124.719C120.943 124.959 121.378 125.079 121.888 125.079C122.383 125.079 122.818 124.959 123.208 124.719ZM133.379 118.434V126.084H132.314L132.149 125.064C131.564 125.814 130.754 126.174 129.704 126.174C128.789 126.174 128.054 125.904 127.514 125.334C126.959 124.779 126.689 123.894 126.689 122.694V118.434H127.919V122.619C127.919 123.414 128.084 124.014 128.429 124.434C128.774 124.854 129.269 125.049 129.914 125.049C130.604 125.049 131.159 124.809 131.549 124.299C131.939 123.804 132.149 123.129 132.149 122.259V118.434H133.379ZM140.5 118.809C141.055 119.124 141.49 119.574 141.805 120.159C142.12 120.759 142.285 121.449 142.285 122.259C142.285 123.039 142.12 123.714 141.805 124.299C141.49 124.899 141.055 125.349 140.5 125.679C139.93 126.009 139.3 126.174 138.61 126.174C137.98 126.174 137.455 126.069 137.02 125.844C136.57 125.619 136.225 125.304 135.985 124.914V129.084H134.755V118.434H135.82L135.985 119.664C136.615 118.794 137.5 118.344 138.61 118.344C139.315 118.344 139.945 118.509 140.5 118.809ZM140.32 124.299C140.785 123.774 141.025 123.099 141.025 122.259C141.025 121.434 140.785 120.759 140.32 120.234C139.855 119.709 139.24 119.439 138.49 119.439C137.995 119.439 137.56 119.559 137.17 119.799C136.78 120.039 136.495 120.369 136.285 120.789C136.075 121.209 135.97 121.689 135.97 122.229C135.97 122.784 136.075 123.279 136.285 123.714C136.495 124.149 136.78 124.479 137.17 124.719C137.56 124.959 137.995 125.079 138.49 125.079C139.24 125.079 139.855 124.824 140.32 124.299ZM143.391 115.584H144.621V126.084H143.391V115.584ZM146.186 120.204C146.486 119.619 146.921 119.169 147.476 118.839C148.016 118.509 148.646 118.344 149.366 118.344C150.056 118.344 150.686 118.494 151.226 118.779C151.766 119.079 152.186 119.499 152.501 120.039C152.801 120.594 152.966 121.239 152.996 121.974C152.996 122.094 152.981 122.259 152.966 122.499H147.026V122.604C147.041 123.354 147.266 123.954 147.716 124.404C148.151 124.854 148.721 125.079 149.441 125.079C149.981 125.079 150.446 124.944 150.836 124.674C151.226 124.404 151.481 124.014 151.616 123.519H152.861C152.711 124.299 152.336 124.944 151.736 125.439C151.136 125.934 150.401 126.174 149.531 126.174C148.766 126.174 148.106 126.024 147.536 125.694C146.966 125.364 146.516 124.914 146.201 124.314C145.886 123.714 145.736 123.039 145.736 122.259C145.736 121.479 145.886 120.804 146.186 120.204ZM151.721 121.479C151.661 120.834 151.406 120.324 150.986 119.964C150.566 119.604 150.026 119.424 149.381 119.424C148.796 119.424 148.286 119.619 147.851 119.994C147.401 120.384 147.161 120.879 147.101 121.479H151.721ZM159.27 125.679C158.7 125.349 158.25 124.899 157.935 124.299C157.605 123.714 157.455 123.039 157.455 122.259C157.455 121.494 157.605 120.819 157.935 120.219C158.25 119.634 158.7 119.169 159.27 118.839C159.84 118.509 160.5 118.344 161.25 118.344C161.985 118.344 162.645 118.509 163.215 118.839C163.785 119.169 164.235 119.634 164.565 120.219C164.88 120.819 165.045 121.494 165.045 122.259C165.045 123.039 164.88 123.714 164.565 124.299C164.235 124.899 163.785 125.349 163.215 125.679C162.645 126.009 161.985 126.174 161.25 126.174C160.5 126.174 159.84 126.009 159.27 125.679ZM162.57 124.719C162.96 124.479 163.26 124.149 163.47 123.714C163.68 123.294 163.785 122.799 163.785 122.259C163.785 121.719 163.68 121.239 163.47 120.804C163.26 120.384 162.96 120.039 162.57 119.799C162.18 119.559 161.745 119.439 161.25 119.439C160.74 119.439 160.305 119.559 159.915 119.799C159.525 120.039 159.24 120.384 159.03 120.804C158.82 121.239 158.715 121.719 158.715 122.259C158.715 122.799 158.82 123.294 159.03 123.714C159.24 124.149 159.525 124.479 159.915 124.719C160.305 124.959 160.74 125.079 161.25 125.079C161.745 125.079 162.18 124.959 162.57 124.719ZM166.578 118.434V117.579C166.578 116.904 166.728 116.409 167.043 116.079C167.358 115.749 167.868 115.584 168.573 115.584H169.983V116.709H168.648C168.348 116.709 168.123 116.784 168.003 116.904C167.868 117.039 167.808 117.249 167.808 117.549V118.434H169.968V119.559H167.808V126.084H166.578V119.559H165.198V118.434H166.578ZM181.385 115.584V126.084H180.32L180.155 124.854C179.51 125.739 178.64 126.174 177.53 126.174C176.81 126.174 176.18 126.024 175.625 125.709C175.07 125.409 174.635 124.959 174.32 124.359C174.005 123.774 173.855 123.069 173.855 122.259C173.855 121.494 174.005 120.819 174.32 120.219C174.635 119.634 175.07 119.169 175.64 118.839C176.195 118.509 176.825 118.344 177.53 118.344C178.145 118.344 178.67 118.464 179.12 118.689C179.555 118.914 179.9 119.214 180.155 119.604V115.584H181.385ZM178.955 124.734C179.345 124.494 179.645 124.164 179.855 123.744C180.065 123.324 180.17 122.829 180.17 122.289C180.17 121.749 180.065 121.254 179.855 120.819C179.645 120.384 179.345 120.039 178.955 119.799C178.565 119.559 178.13 119.439 177.65 119.439C176.885 119.439 176.27 119.709 175.805 120.234C175.34 120.759 175.115 121.434 175.115 122.259C175.115 123.099 175.34 123.774 175.805 124.299C176.27 124.824 176.885 125.079 177.65 125.079C178.13 125.079 178.565 124.974 178.955 124.734ZM189.916 124.959V126.084H189.241C188.746 126.084 188.401 125.994 188.191 125.784C187.981 125.589 187.861 125.289 187.861 124.899C187.261 125.754 186.406 126.174 185.296 126.174C184.441 126.174 183.751 125.979 183.241 125.574C182.731 125.184 182.476 124.629 182.476 123.939C182.476 123.174 182.731 122.589 183.256 122.169C183.781 121.764 184.546 121.554 185.551 121.554H187.801V121.029C187.801 120.534 187.621 120.144 187.291 119.859C186.961 119.589 186.496 119.439 185.896 119.439C185.356 119.439 184.921 119.559 184.576 119.799C184.231 120.039 184.021 120.339 183.946 120.729H182.716C182.806 119.979 183.136 119.394 183.706 118.974C184.276 118.554 185.026 118.344 185.956 118.344C186.931 118.344 187.681 118.584 188.221 119.064C188.761 119.544 189.031 120.219 189.031 121.104V124.404C189.031 124.779 189.196 124.959 189.541 124.959H189.916ZM187.801 122.589H185.431C184.291 122.589 183.721 123.024 183.721 123.864C183.721 124.254 183.871 124.554 184.171 124.779C184.471 125.019 184.876 125.124 185.386 125.124C186.136 125.124 186.721 124.929 187.156 124.539C187.576 124.149 187.801 123.624 187.801 122.964V122.589ZM190.882 118.434L193.237 124.674L195.517 118.434H196.822L193.297 127.374C193.117 127.839 192.952 128.184 192.817 128.409C192.667 128.649 192.502 128.814 192.292 128.919C192.082 129.039 191.797 129.084 191.452 129.084H189.982V127.959H191.077C191.317 127.959 191.497 127.944 191.617 127.884C191.737 127.839 191.827 127.764 191.902 127.644C191.977 127.524 192.067 127.329 192.187 127.059L192.577 126.144L189.577 118.434H190.882ZM198.253 123.564C198.268 124.029 198.463 124.404 198.853 124.689C199.243 124.989 199.738 125.124 200.353 125.124C200.893 125.124 201.328 125.019 201.658 124.809C201.988 124.599 202.168 124.314 202.168 123.954C202.168 123.654 202.078 123.429 201.928 123.264C201.763 123.114 201.553 122.994 201.298 122.934C201.043 122.874 200.683 122.814 200.218 122.754C199.558 122.679 199.018 122.574 198.598 122.439C198.178 122.319 197.833 122.109 197.578 121.824C197.308 121.539 197.188 121.149 197.188 120.639C197.188 120.189 197.308 119.799 197.563 119.439C197.818 119.094 198.163 118.824 198.613 118.629C199.048 118.434 199.543 118.329 200.098 118.329C200.998 118.329 201.718 118.539 202.288 118.959C202.858 119.379 203.173 119.979 203.233 120.759H202.003C201.943 120.369 201.748 120.039 201.418 119.769C201.073 119.514 200.653 119.379 200.143 119.379C199.618 119.379 199.198 119.499 198.883 119.709C198.553 119.919 198.403 120.204 198.403 120.549C198.403 120.819 198.478 121.014 198.628 121.149C198.778 121.299 198.958 121.389 199.198 121.434C199.438 121.494 199.798 121.539 200.278 121.599C200.938 121.689 201.493 121.794 201.928 121.929C202.363 122.079 202.708 122.304 202.978 122.604C203.248 122.919 203.383 123.339 203.383 123.864C203.383 124.329 203.248 124.734 202.978 125.079C202.708 125.439 202.333 125.709 201.883 125.889C201.418 126.084 200.908 126.174 200.353 126.174C199.348 126.174 198.538 125.949 197.938 125.484C197.338 125.034 197.023 124.389 197.023 123.564H198.253ZM204.451 124.734C204.601 124.584 204.811 124.494 205.066 124.494C205.306 124.494 205.516 124.584 205.681 124.734C205.831 124.884 205.921 125.094 205.921 125.334C205.921 125.589 205.831 125.799 205.681 125.949C205.516 126.099 205.306 126.174 205.066 126.174C204.811 126.174 204.601 126.099 204.451 125.949C204.286 125.799 204.211 125.589 204.211 125.334C204.211 125.094 204.286 124.884 204.451 124.734Z" fill="#6A6A70"/>
<path d="M81.127 196.763L93.9089 189.127L107.09 185.564L120.272 192.69L133.853 189.127H147.433L160.615 185.564H172.997L185.779 180.814L198.561 185.564L213.74 177.251L224.924 180.814L236.907 177.251L248.89 173.688L264.069 177.251L275.253 173.688L285.638 166.562L299.619 159.437L313.599 153.499H327.579L342.358 149.936L352.744 153.499H358.735L368.721 159.437L380.305 170.125L392.288 173.688H396.682L406.668 159.437L417.053 153.499L426.24 149.936L444.215 146.373L450.206 138.06L463.388 134.497L478.566 130.934H484.957C487.487 132.122 492.706 134.497 493.345 134.497C493.985 134.497 502.133 136.872 506.127 138.06L516.513 146.373H528.895L540.878 138.06L549.267 141.623L565.244 146.373L575.23 141.623L592.406 138.06C594.403 136.872 598.557 134.497 599.196 134.497C599.835 134.497 604.256 130.539 606.386 128.559H614.375L620.366 116.683H633.148L645.131 104" stroke="#EF8354" stroke-width="2.2045" stroke-linecap="round" stroke-linejoin="round"/>
<path d="M93.9089 191.149L81.127 198.786V251.852H645.131V106.022L633.148 118.706H620.366L614.375 130.582H606.386C604.256 132.561 599.835 136.52 599.196 136.52C598.557 136.52 594.403 138.895 592.406 140.082L575.23 143.645L565.244 148.396L549.267 143.645L540.878 140.082L528.895 148.396H516.513L506.127 140.082C502.133 138.895 493.985 136.52 493.345 136.52C492.706 136.52 487.487 134.144 484.957 132.957H478.566L463.388 136.52L450.206 140.082L444.215 148.396L426.24 151.959L417.053 155.521L406.668 161.459L396.682 175.711H392.288L380.305 172.148L368.721 161.459L358.735 155.521H352.744L342.358 151.959L327.579 155.521H313.599L299.619 161.459L285.638 168.585L275.253 175.711L264.069 179.273L248.89 175.711L236.907 179.273L224.924 182.836L213.74 179.273L198.561 187.587L185.779 182.836L172.997 187.587H160.615L147.433 191.149H133.853L120.272 194.712L107.09 187.587L93.9089 191.149Z" fill="url(#paint0_linear_151_16596)"/>
<path d="M85.2481 259.094V267.45H84.2363V260.155H84.1873L82.1473 261.51V260.482L84.2363 259.094H85.2481ZM90.5888 259.094V267.45H89.577V260.155H89.528L87.488 261.51V260.482L89.577 259.094H90.5888Z" fill="#6A6A70"/>
<path d="M175.966 259.094V267.45H174.955V260.155H174.906L172.866 261.51V260.482L174.955 259.094H175.966ZM178.37 267.45V266.716L181.128 263.697C181.451 263.343 181.718 263.036 181.927 262.775C182.137 262.511 182.292 262.263 182.392 262.032C182.496 261.798 182.547 261.553 182.547 261.298C182.547 261.004 182.477 260.75 182.335 260.535C182.197 260.32 182.006 260.154 181.764 260.037C181.522 259.92 181.25 259.861 180.948 259.861C180.627 259.861 180.347 259.928 180.108 260.061C179.871 260.192 179.687 260.376 179.557 260.612C179.429 260.849 179.365 261.126 179.365 261.444H178.402C178.402 260.955 178.515 260.525 178.741 260.155C178.967 259.785 179.274 259.497 179.663 259.29C180.055 259.084 180.494 258.98 180.981 258.98C181.47 258.98 181.904 259.084 182.282 259.29C182.66 259.497 182.957 259.776 183.172 260.127C183.387 260.478 183.494 260.868 183.494 261.298C183.494 261.605 183.438 261.906 183.327 262.199C183.218 262.49 183.028 262.815 182.756 263.174C182.486 263.531 182.112 263.966 181.634 264.48L179.757 266.487V266.553H183.641V267.45H178.37Z" fill="#6A6A70"/>
<path d="M267.941 259.094V267.45H266.93V260.155H266.881L264.841 261.51V260.482L266.93 259.094H267.941ZM273.168 267.564C272.629 267.564 272.149 267.472 271.728 267.287C271.309 267.102 270.976 266.845 270.728 266.516C270.483 266.184 270.35 265.799 270.328 265.361H271.356C271.378 265.631 271.471 265.863 271.634 266.059C271.797 266.252 272.01 266.402 272.274 266.508C272.538 266.614 272.831 266.667 273.152 266.667C273.511 266.667 273.829 266.604 274.106 266.479C274.384 266.354 274.601 266.18 274.759 265.957C274.917 265.734 274.996 265.475 274.996 265.182C274.996 264.874 274.919 264.604 274.767 264.37C274.615 264.133 274.392 263.948 274.098 263.815C273.804 263.682 273.445 263.615 273.021 263.615H272.352V262.717H273.021C273.353 262.717 273.644 262.658 273.894 262.538C274.147 262.418 274.344 262.25 274.486 262.032C274.63 261.814 274.702 261.559 274.702 261.265C274.702 260.982 274.639 260.736 274.514 260.526C274.389 260.317 274.212 260.154 273.984 260.037C273.758 259.92 273.492 259.861 273.184 259.861C272.896 259.861 272.624 259.914 272.368 260.021C272.115 260.124 271.908 260.275 271.748 260.473C271.588 260.669 271.5 260.906 271.487 261.183H270.508C270.524 260.745 270.656 260.362 270.903 260.033C271.151 259.701 271.475 259.443 271.874 259.258C272.277 259.073 272.719 258.98 273.2 258.98C273.717 258.98 274.161 259.085 274.531 259.294C274.9 259.501 275.185 259.774 275.383 260.114C275.582 260.454 275.681 260.822 275.681 261.216C275.681 261.687 275.557 262.088 275.31 262.42C275.065 262.751 274.732 262.981 274.31 263.109V263.174C274.838 263.261 275.25 263.486 275.546 263.848C275.843 264.207 275.991 264.651 275.991 265.182C275.991 265.636 275.867 266.044 275.62 266.406C275.375 266.765 275.041 267.048 274.616 267.254C274.192 267.461 273.709 267.564 273.168 267.564Z" fill="#6A6A70"/>
<path d="M360.219 259.094V267.45H359.207V260.155H359.158L357.118 261.51V260.482L359.207 259.094H360.219ZM362.427 265.737V264.904L366.099 259.094H366.702V260.384H366.294L363.52 264.774V264.839H368.465V265.737H362.427ZM366.36 267.45V265.484V265.096V259.094H367.322V267.45H366.36Z" fill="#6A6A70"/>
<path d="M452.935 259.094V267.45H451.923V260.155H451.874L449.834 261.51V260.482L451.923 259.094H452.935ZM457.949 267.564C457.47 267.564 457.039 267.469 456.656 267.279C456.272 267.088 455.965 266.827 455.734 266.495C455.502 266.164 455.376 265.786 455.354 265.361H456.333C456.371 265.739 456.543 266.052 456.847 266.3C457.155 266.544 457.522 266.667 457.949 266.667C458.292 266.667 458.596 266.587 458.863 266.426C459.132 266.266 459.343 266.045 459.495 265.765C459.65 265.482 459.728 265.163 459.728 264.806C459.728 264.442 459.648 264.117 459.487 263.831C459.329 263.543 459.112 263.316 458.834 263.15C458.557 262.984 458.24 262.9 457.884 262.897C457.628 262.894 457.366 262.934 457.096 263.015C456.827 263.094 456.605 263.196 456.431 263.321L455.485 263.207L455.991 259.094H460.332V259.992H456.839L456.546 262.456H456.594C456.766 262.32 456.981 262.207 457.239 262.118C457.497 262.028 457.767 261.983 458.047 261.983C458.558 261.983 459.014 262.105 459.414 262.35C459.816 262.592 460.132 262.924 460.36 263.346C460.591 263.767 460.707 264.249 460.707 264.79C460.707 265.323 460.587 265.799 460.348 266.218C460.111 266.634 459.785 266.963 459.369 267.205C458.953 267.445 458.479 267.564 457.949 267.564Z" fill="#6A6A70"/>
<path d="M545.089 259.094V267.45H544.077V260.155H544.028L541.988 261.51V260.482L544.077 259.094H545.089ZM550.267 267.564C549.924 267.559 549.581 267.494 549.239 267.369C548.896 267.243 548.583 267.033 548.3 266.736C548.017 266.437 547.79 266.033 547.619 265.524C547.447 265.013 547.362 264.371 547.362 263.599C547.362 262.859 547.431 262.203 547.57 261.632C547.709 261.058 547.91 260.575 548.174 260.184C548.437 259.789 548.756 259.49 549.128 259.286C549.504 259.082 549.927 258.98 550.397 258.98C550.865 258.98 551.281 259.074 551.646 259.262C552.013 259.447 552.312 259.705 552.543 260.037C552.775 260.369 552.924 260.751 552.992 261.183H551.997C551.904 260.808 551.725 260.497 551.458 260.249C551.191 260.002 550.838 259.878 550.397 259.878C549.75 259.878 549.24 260.159 548.867 260.722C548.497 261.285 548.311 262.076 548.308 263.093H548.374C548.526 262.862 548.707 262.664 548.916 262.501C549.128 262.335 549.362 262.207 549.618 262.118C549.874 262.028 550.144 261.983 550.43 261.983C550.909 261.983 551.347 262.103 551.744 262.342C552.141 262.579 552.459 262.906 552.698 263.325C552.938 263.741 553.057 264.219 553.057 264.757C553.057 265.274 552.942 265.747 552.711 266.177C552.479 266.604 552.154 266.944 551.735 267.197C551.319 267.447 550.83 267.57 550.267 267.564ZM550.267 266.667C550.609 266.667 550.917 266.581 551.189 266.41C551.463 266.238 551.68 266.009 551.837 265.72C551.998 265.432 552.078 265.111 552.078 264.757C552.078 264.412 552.001 264.098 551.846 263.815C551.693 263.529 551.483 263.302 551.213 263.134C550.947 262.965 550.642 262.881 550.299 262.881C550.041 262.881 549.8 262.932 549.577 263.036C549.354 263.136 549.158 263.275 548.99 263.452C548.824 263.629 548.693 263.831 548.598 264.06C548.503 264.285 548.455 264.523 548.455 264.774C548.455 265.106 548.533 265.416 548.688 265.704C548.845 265.992 549.06 266.225 549.332 266.402C549.607 266.578 549.919 266.667 550.267 266.667Z" fill="#6A6A70"/>
<path d="M637.029 259.094V267.45H636.017V260.155H635.968L633.928 261.51V260.482L636.017 259.094H637.029ZM639.693 267.45L643.431 260.057V259.992H639.122V259.094H644.475V260.041L640.754 267.45H639.693Z" fill="#6A6A70"/>
</g>
<defs>
<linearGradient id="paint0_linear_151_16596" x1="278.742" y1="137.052" x2="281.513" y2="251.762" gradientUnits="userSpaceOnUse">
<stop offset="0.125" stop-color="#FCE6DD"/>
<stop offset="1" stop-color="#FFE1A7" stop-opacity="0"/>
</linearGradient>
<clipPath id="clip0_151_16596">
<rect width="726" height="287" fill="white"/>
</clipPath>
</defs>
</svg>
