<svg width="41" height="40" viewBox="0 0 41 40" fill="none" xmlns="http://www.w3.org/2000/svg">
<g clip-path="url(#clip0_191_13900)">
<path d="M6.72309 4.44434C6.25159 4.44434 5.79941 4.63164 5.46601 4.96504C5.13261 5.29843 4.94531 5.75062 4.94531 6.22211V13.3332H13.8342V4.44434H6.72309ZM11.612 11.111H7.16753V6.66656H11.612V11.111Z" fill="white"/>
<path d="M4.94531 33.7781C4.94531 34.2496 5.13261 34.7018 5.46601 35.0352C5.79941 35.3686 6.25159 35.5559 6.72309 35.5559H13.8342V26.667H4.94531V33.7781ZM7.16753 28.8892H11.612V33.3337H7.16753V28.8892Z" fill="white"/>
<path d="M27.166 35.5559H34.2771C34.7486 35.5559 35.2008 35.3686 35.5342 35.0352C35.8676 34.7018 36.0549 34.2496 36.0549 33.7781V26.667H27.166V35.5559ZM29.3882 28.8892H33.8327V33.3337H29.3882V28.8892Z" fill="white"/>
<path d="M34.2771 4.44434H27.166V13.3332H36.0549V6.22211C36.0549 5.75062 35.8676 5.29843 35.5342 4.96504C35.2008 4.63164 34.7486 4.44434 34.2771 4.44434ZM33.8327 11.111H29.3882V6.66656H33.8327V11.111Z" fill="white"/>
<path d="M22.7218 11.1109V8.88867H18.2773V13.3331H20.4996V11.1109H22.7218Z" fill="white"/>
<path d="M13.834 13.333H16.0562V15.5552H13.834V13.333Z" fill="white"/>
<path d="M16.0566 15.5557H20.5011V17.7779H16.0566V15.5557Z" fill="white"/>
<path d="M22.7233 6.66656V8.88878H24.9455V4.44434H16.0566V8.88878H18.2789V6.66656H22.7233Z" fill="white"/>
<path d="M4.94531 15.5557H7.16753V20.0001H4.94531V15.5557Z" fill="white"/>
<path d="M13.8342 17.7779V20.0001H11.612V15.5557H9.38976V20.0001H7.16753V22.2223H4.94531V24.4446H9.38976V22.2223H11.612V24.4446H13.8342V22.2223H16.0564V17.7779H13.8342Z" fill="white"/>
<path d="M22.7222 17.778H24.9444V20.0002H27.1667V17.778H29.3889V15.5558H24.9444V11.1113H22.7222V13.3336H20.5V15.5558H22.7222V17.778Z" fill="white"/>
<path d="M20.5011 33.3336H16.0566V35.5558H24.9455V33.3336H22.7233V31.1113H20.5011V33.3336Z" fill="white"/>
<path d="M24.944 22.2228V20.0005H22.7218V17.7783H20.4996V20.0005H18.2773V22.2228H20.4996V24.445H22.7218V22.2228H24.944Z" fill="white"/>
<path d="M33.834 22.2217H36.0562V24.4439H33.834V22.2217Z" fill="white"/>
<path d="M24.9453 22.2217H31.612V24.4439H24.9453V22.2217Z" fill="white"/>
<path d="M33.8331 15.5557H31.6109V17.7779H29.3887V20.0001H31.6109V22.2223H33.8331V20.0001H36.0553V17.7779H33.8331V15.5557Z" fill="white"/>
<path d="M22.7227 24.4443H24.9449V31.111H22.7227V24.4443Z" fill="white"/>
<path d="M16.0566 31.1106H18.2789V28.8883H20.5011V26.6661H18.2789V22.2217H16.0566V31.1106Z" fill="white"/>
</g>
<defs>
<clipPath id="clip0_191_13900">
<rect width="40" height="40" fill="white" transform="translate(0.5)"/>
</clipPath>
</defs>
</svg>
