<svg width="109" height="37" viewBox="0 0 109 37" fill="none" xmlns="http://www.w3.org/2000/svg">
<rect x="0.7" y="0.95" width="107.1" height="35.1" rx="5.85" fill="#111111"/>
<rect x="0.7" y="0.95" width="107.1" height="35.1" rx="5.85" stroke="white" stroke-width="0.9"/>
<path d="M22.5422 18.7707C22.5617 17.2578 23.3742 15.8263 24.6631 15.0339C23.85 13.8726 22.488 13.1363 21.0711 13.0919C19.5597 12.9333 18.0946 13.9963 17.3244 13.9963C16.5394 13.9963 15.3536 13.1077 14.0768 13.134C12.4125 13.1877 10.8609 14.134 10.0512 15.589C8.31056 18.6026 9.60889 23.0316 11.2762 25.4675C12.1105 26.6603 13.0854 27.9927 14.3611 27.9455C15.6095 27.8937 16.0757 27.1495 17.5826 27.1495C19.0755 27.1495 19.5129 27.9455 20.8145 27.9155C22.154 27.8937 22.998 26.7173 23.8029 25.5132C24.4023 24.6633 24.8635 23.7239 25.1695 22.73C23.5953 22.0642 22.544 20.4799 22.5422 18.7707Z" fill="white"/>
<path d="M20.0837 11.4899C20.8141 10.6132 21.1739 9.4862 21.0868 8.34839C19.9709 8.46559 18.9402 8.99889 18.1999 9.84204C17.4761 10.6658 17.0994 11.773 17.1706 12.8673C18.2869 12.8788 19.3842 12.3599 20.0837 11.4899Z" fill="white"/>
<path d="M73.624 17.7808V19.8427H72.3316V21.1949H73.624V25.7894C73.624 27.3583 74.3337 27.9858 76.1192 27.9858C76.433 27.9858 76.7318 27.9484 76.9933 27.9036V26.5664C76.7692 26.5888 76.6272 26.6037 76.3807 26.6037C75.5813 26.6037 75.2302 26.2302 75.2302 25.3785V21.1949H76.9933V19.8427H75.2302V17.7808H73.624Z" fill="white"/>
<path d="M81.5417 28.0979C83.9174 28.0979 85.3742 26.5066 85.3742 23.8694C85.3742 21.2472 83.91 19.6485 81.5417 19.6485C79.1661 19.6485 77.7018 21.2472 77.7018 23.8694C77.7018 26.5066 79.1586 28.0979 81.5417 28.0979ZM81.5417 26.671C80.1447 26.671 79.3603 25.6475 79.3603 23.8694C79.3603 22.1064 80.1447 21.0754 81.5417 21.0754C82.9313 21.0754 83.7232 22.1064 83.7232 23.8694C83.7232 25.64 82.9313 26.671 81.5417 26.671Z" fill="white"/>
<path d="M86.6206 27.941H88.2268V23.1373C88.2268 21.9943 89.086 21.2248 90.3037 21.2248C90.5876 21.2248 91.0657 21.2771 91.2002 21.3219V19.7381C91.0283 19.6933 90.722 19.6709 90.483 19.6709C89.4221 19.6709 88.5182 20.2536 88.2866 21.053H88.1671V19.8054H86.6206V27.941Z" fill="white"/>
<path d="M95.1883 21.0156C96.3762 21.0156 97.1531 21.8449 97.1905 23.1224H93.0816C93.1712 21.8524 94.0005 21.0156 95.1883 21.0156ZM97.183 25.7446C96.8842 26.3796 96.2193 26.7307 95.2481 26.7307C93.9631 26.7307 93.1339 25.8268 93.0816 24.3999V24.3102H98.8266V23.7499C98.8266 21.1949 97.4594 19.6485 95.1958 19.6485C92.9023 19.6485 91.4455 21.2995 91.4455 23.8993C91.4455 26.4991 92.8724 28.0979 95.2033 28.0979C97.0635 28.0979 98.3634 27.2014 98.7294 25.7446H97.183Z" fill="white"/>
<path d="M63.0908 24.9366C63.2147 26.9344 64.8794 28.212 67.3573 28.212C70.0054 28.212 71.6625 26.8724 71.6625 24.7353C71.6625 23.055 70.7178 22.1259 68.4258 21.5916L67.1946 21.2896C65.7389 20.9489 65.1505 20.4921 65.1505 19.6945C65.1505 18.6879 66.0641 18.0297 67.4347 18.0297C68.7355 18.0297 69.6337 18.6724 69.7963 19.7023H71.4844C71.3837 17.8207 69.7267 16.4966 67.4579 16.4966C65.0188 16.4966 63.3928 17.8207 63.3928 19.8107C63.3928 21.4522 64.3142 22.4278 66.3352 22.9002L67.7754 23.2486C69.2543 23.5971 69.9048 24.1081 69.9048 24.9599C69.9048 25.951 68.8827 26.6711 67.4889 26.6711C65.9945 26.6711 64.9569 25.9974 64.8097 24.9366H63.0908Z" fill="white"/>
<path d="M46.4522 19.6709C45.3465 19.6709 44.3903 20.2237 43.8972 21.1501H43.7777V19.8054H42.2312V30.6454H43.8374V26.7083H43.9644C44.3903 27.5674 45.3092 28.0755 46.4671 28.0755C48.5216 28.0755 49.8289 26.4543 49.8289 23.8694C49.8289 21.2846 48.5216 19.6709 46.4522 19.6709ZM45.9965 26.6336C44.6517 26.6336 43.8075 25.5728 43.8075 23.8769C43.8075 22.1736 44.6517 21.1128 46.0039 21.1128C47.3636 21.1128 48.1779 22.1512 48.1779 23.8694C48.1779 25.5952 47.3636 26.6336 45.9965 26.6336Z" fill="white"/>
<path d="M55.4493 19.6709C54.3436 19.6709 53.3874 20.2237 52.8943 21.1501H52.7748V19.8054H51.2283V30.6454H52.8345V26.7083H52.9615C53.3874 27.5674 54.3063 28.0755 55.4642 28.0755C57.5187 28.0755 58.826 26.4543 58.826 23.8694C58.826 21.2846 57.5187 19.6709 55.4493 19.6709ZM54.9936 26.6336C53.6488 26.6336 52.8047 25.5728 52.8047 23.8769C52.8047 22.1736 53.6488 21.1128 55.001 21.1128C56.3607 21.1128 57.175 22.1512 57.175 23.8694C57.175 25.5952 56.3607 26.6336 54.9936 26.6336Z" fill="white"/>
<path d="M39.3494 27.941H41.1923L37.1581 16.7676H35.292L31.2578 27.941H33.0387L34.0686 24.9753H38.3273L39.3494 27.941ZM36.136 18.7963H36.2676L37.886 23.5196H34.5099L36.136 18.7963Z" fill="white"/>
<path d="M32.3359 8.33992V13.73H34.2821C35.8883 13.73 36.8184 12.7402 36.8184 11.0182C36.8184 9.32231 35.8808 8.33992 34.2821 8.33992H32.3359ZM33.1727 9.10193H34.1887C35.3055 9.10193 35.9667 9.81165 35.9667 11.0294C35.9667 12.2658 35.3167 12.968 34.1887 12.968H33.1727V9.10193Z" fill="white"/>
<path d="M39.6669 13.8085C40.8548 13.8085 41.5832 13.0128 41.5832 11.6943C41.5832 10.3832 40.851 9.58379 39.6669 9.58379C38.4791 9.58379 37.747 10.3832 37.747 11.6943C37.747 13.0128 38.4754 13.8085 39.6669 13.8085ZM39.6669 13.095C38.9684 13.095 38.5762 12.5833 38.5762 11.6943C38.5762 10.8127 38.9684 10.2972 39.6669 10.2972C40.3617 10.2972 40.7577 10.8127 40.7577 11.6943C40.7577 12.5795 40.3617 13.095 39.6669 13.095Z" fill="white"/>
<path d="M47.7861 9.66223H46.983L46.2583 12.7663H46.1948L45.3581 9.66223H44.5886L43.7519 12.7663H43.6922L42.9638 9.66223H42.1495L43.2701 13.73H44.0956L44.9323 10.7343H44.9958L45.8362 13.73H46.6692L47.7861 9.66223Z" fill="white"/>
<path d="M48.711 13.73H49.5141V11.3506C49.5141 10.7156 49.8913 10.3197 50.4853 10.3197C51.0792 10.3197 51.3631 10.6446 51.3631 11.2983V13.73H52.1662V11.0966C52.1662 10.1292 51.6656 9.58379 50.7579 9.58379C50.1453 9.58379 49.7419 9.85647 49.544 10.3084H49.4842V9.66223H48.711V13.73Z" fill="white"/>
<path d="M53.431 13.73H54.2341V8.07471H53.431V13.73Z" fill="white"/>
<path d="M57.2545 13.8085C58.4423 13.8085 59.1707 13.0128 59.1707 11.6943C59.1707 10.3832 58.4386 9.58379 57.2545 9.58379C56.0666 9.58379 55.3345 10.3832 55.3345 11.6943C55.3345 13.0128 56.0629 13.8085 57.2545 13.8085ZM57.2545 13.095C56.556 13.095 56.1637 12.5833 56.1637 11.6943C56.1637 10.8127 56.556 10.2972 57.2545 10.2972C57.9492 10.2972 58.3452 10.8127 58.3452 11.6943C58.3452 12.5795 57.9492 13.095 57.2545 13.095Z" fill="white"/>
<path d="M61.5636 13.1212C61.1265 13.1212 60.809 12.9083 60.809 12.5422C60.809 12.1836 61.063 11.9931 61.6233 11.9557L62.6169 11.8922V12.2322C62.6169 12.7364 62.1687 13.1212 61.5636 13.1212ZM61.3581 13.7973C61.8923 13.7973 62.3368 13.5657 62.5796 13.1585H62.6431V13.73H63.4163V10.9509C63.4163 10.0918 62.8411 9.58379 61.8213 9.58379C60.8987 9.58379 60.2413 10.032 60.1591 10.7305H60.936C61.0257 10.4429 61.3357 10.2786 61.784 10.2786C62.333 10.2786 62.6169 10.5214 62.6169 10.9509V11.3021L61.515 11.3656C60.5476 11.4253 60.0022 11.8474 60.0022 12.5795C60.0022 13.3229 60.5737 13.7973 61.3581 13.7973Z" fill="white"/>
<path d="M66.1416 13.7973C66.7019 13.7973 67.1763 13.5321 67.4191 13.0875H67.4826V13.73H68.2521V8.07471H67.449V10.3084H67.3892C67.1688 9.86021 66.6982 9.595 66.1416 9.595C65.1144 9.595 64.4532 10.4093 64.4532 11.6943C64.4532 12.983 65.1069 13.7973 66.1416 13.7973ZM66.3695 10.3159C67.0418 10.3159 67.4639 10.8501 67.4639 11.698C67.4639 12.5497 67.0456 13.0763 66.3695 13.0763C65.6896 13.0763 65.2825 12.5571 65.2825 11.6943C65.2825 10.8389 65.6934 10.3159 66.3695 10.3159Z" fill="white"/>
<path d="M73.4599 13.8085C74.6478 13.8085 75.3762 13.0128 75.3762 11.6943C75.3762 10.3832 74.644 9.58379 73.4599 9.58379C72.2721 9.58379 71.5399 10.3832 71.5399 11.6943C71.5399 13.0128 72.2683 13.8085 73.4599 13.8085ZM73.4599 13.095C72.7614 13.095 72.3692 12.5833 72.3692 11.6943C72.3692 10.8127 72.7614 10.2972 73.4599 10.2972C74.1547 10.2972 74.5506 10.8127 74.5506 11.6943C74.5506 12.5795 74.1547 13.095 73.4599 13.095Z" fill="white"/>
<path d="M76.4392 13.73H77.2423V11.3506C77.2423 10.7156 77.6196 10.3197 78.2135 10.3197C78.8074 10.3197 79.0913 10.6446 79.0913 11.2983V13.73H79.8944V11.0966C79.8944 10.1292 79.3939 9.58379 78.4862 9.58379C77.8736 9.58379 77.4702 9.85647 77.2722 10.3084H77.2125V9.66223H76.4392V13.73Z" fill="white"/>
<path d="M83.5932 8.64995V9.68091H82.947V10.357H83.5932V12.6542C83.5932 13.4387 83.948 13.7524 84.8408 13.7524C84.9977 13.7524 85.1471 13.7338 85.2778 13.7114V13.0427C85.1658 13.0539 85.0948 13.0614 84.9715 13.0614C84.5718 13.0614 84.3963 12.8746 84.3963 12.4488V10.357H85.2778V9.68091H84.3963V8.64995H83.5932Z" fill="white"/>
<path d="M86.3558 13.73H87.1589V11.3543C87.1589 10.738 87.525 10.3234 88.1824 10.3234C88.7502 10.3234 89.0528 10.6521 89.0528 11.3021V13.73H89.8559V11.1041C89.8559 10.1366 89.3217 9.58752 88.4551 9.58752C87.8425 9.58752 87.4129 9.86021 87.215 10.3159H87.1515V8.07471H86.3558V13.73Z" fill="white"/>
<path d="M92.753 10.2674C93.3469 10.2674 93.7354 10.682 93.7541 11.3207H91.6996C91.7445 10.6857 92.1591 10.2674 92.753 10.2674ZM93.7503 12.6318C93.6009 12.9493 93.2685 13.1249 92.7829 13.1249C92.1404 13.1249 91.7258 12.6729 91.6996 11.9595V11.9146H94.5721V11.6345C94.5721 10.357 93.8886 9.58379 92.7567 9.58379C91.61 9.58379 90.8816 10.4093 90.8816 11.7092C90.8816 13.0091 91.595 13.8085 92.7605 13.8085C93.6906 13.8085 94.3405 13.3602 94.5236 12.6318H93.7503Z" fill="white"/>
</svg>
