<svg width="24" height="25" viewBox="0 0 24 25" fill="none" xmlns="http://www.w3.org/2000/svg">
<rect y="0.5" width="24" height="24" rx="12" fill="#D8FBEC"/>
<path fill-rule="evenodd" clip-rule="evenodd" d="M12 21.5C16.9706 21.5 21 17.4706 21 12.5C21 7.52944 16.9706 3.5 12 3.5C7.02944 3.5 3 7.52944 3 12.5C3 17.4706 7.02944 21.5 12 21.5ZM15.6754 11.2375C16.0827 10.8644 16.1105 10.2319 15.7375 9.8246C15.3644 9.41732 14.7319 9.38954 14.3246 9.76255L10.6325 13.144L9.6754 12.2674C9.26812 11.8944 8.63557 11.9221 8.26255 12.3294C7.88954 12.7367 7.91732 13.3693 8.3246 13.7423L9.95712 15.2374C10.3393 15.5875 10.9257 15.5875 11.3079 15.2374L15.6754 11.2375Z" fill="#00E484"/>
</svg>
