<svg width="20" height="20" viewBox="0 0 20 20" fill="none" xmlns="http://www.w3.org/2000/svg">
<path d="M5.5 9.49739C5.5 7.22572 5.5 6.08989 6.2025 5.38406C6.90583 4.67822 8.03667 4.67822 10.3 4.67822H12.7C14.9625 4.67822 16.0942 4.67822 16.7967 5.38406C17.5 6.08989 17.5 7.22572 17.5 9.49739V13.5141C17.5 15.7857 17.5 16.9216 16.7967 17.6274C16.0942 18.3332 14.9625 18.3332 12.7 18.3332H10.3C8.03667 18.3332 6.90583 18.3332 6.2025 17.6274C5.5 16.9216 5.5 15.7857 5.5 13.5141V9.49739Z" fill="#EF8354"/>
<path opacity="0.5" d="M3.47667 2.64317C2.5 3.619 2.5 5.19067 2.5 8.33317V9.99984C2.5 13.1423 2.5 14.714 3.47667 15.6898C3.99083 16.2048 4.67083 16.4482 5.66 16.5632C5.5 15.8632 5.5 14.8998 5.5 13.5132V9.49734C5.5 7.22567 5.5 6.08984 6.2025 5.384C6.90583 4.67817 8.03667 4.67817 10.3 4.67817H12.7C14.0767 4.67817 15.0333 4.67817 15.7317 4.8365C15.6167 3.84234 15.3733 3.15984 14.8567 2.64317C13.8808 1.6665 12.3092 1.6665 9.16667 1.6665C6.02417 1.6665 4.4525 1.6665 3.47667 2.64317Z" fill="#EF8354"/>
</svg>
