<svg width="80" height="80" viewBox="0 0 80 80" fill="none" xmlns="http://www.w3.org/2000/svg">
<g clip-path="url(#clip0_93_58872)">
<path d="M12.4442 8.88867C11.5012 8.88867 10.5969 9.26327 9.93007 9.93007C9.26327 10.5969 8.88867 11.5012 8.88867 12.4442V26.6665H26.6665V8.88867H12.4442ZM22.222 22.222H13.3331V13.3331H22.222V22.222Z" fill="white"/>
<path d="M8.88867 67.5557C8.88867 68.4987 9.26327 69.4031 9.93007 70.0699C10.5969 70.7367 11.5012 71.1113 12.4442 71.1113H26.6665V53.3335H8.88867V67.5557ZM13.3331 57.7779H22.222V66.6668H13.3331V57.7779Z" fill="white"/>
<path d="M53.334 71.111H67.5562C68.4992 71.111 69.4036 70.7364 70.0704 70.0696C70.7372 69.4028 71.1118 68.4985 71.1118 67.5555V53.3333H53.334V71.111ZM57.7784 57.7777H66.6673V66.6666H57.7784V57.7777Z" fill="white"/>
<path d="M67.5562 8.88892H53.334V26.6667H71.1118V12.4445C71.1118 11.5015 70.7372 10.5971 70.0704 9.93031C69.4036 9.26352 68.4992 8.88892 67.5562 8.88892ZM66.6673 22.2222H57.7784V13.3334H66.6673V22.2222Z" fill="white"/>
<path d="M44.4436 22.2223V17.7778H35.5547V26.6667H39.9991V22.2223H44.4436Z" fill="white"/>
<path d="M26.666 26.6667H31.1105V31.1112H26.666V26.6667Z" fill="white"/>
<path d="M31.1113 31.1113H40.0002V35.5558H31.1113V31.1113Z" fill="white"/>
<path d="M44.4447 13.3331V17.7776H48.8891V8.88867H31.1113V17.7776H35.5558V13.3331H44.4447Z" fill="white"/>
<path d="M8.88867 31.1113H13.3331V40.0002H8.88867V31.1113Z" fill="white"/>
<path d="M26.6664 35.5558V40.0002H22.222V31.1113H17.7776V40.0002H13.3331V44.4447H8.88867V48.8891H17.7776V44.4447H22.222V48.8891H26.6664V44.4447H31.1109V35.5558H26.6664Z" fill="white"/>
<path d="M44.4444 35.5555H48.8889V39.9999H53.3333V35.5555H57.7778V31.1111H48.8889V22.2222H44.4444V26.6666H40V31.1111H44.4444V35.5555Z" fill="white"/>
<path d="M40.0002 66.6666H31.1113V71.1111H48.8891V66.6666H44.4447V62.2222H40.0002V66.6666Z" fill="white"/>
<path d="M48.888 44.4446V40.0001H44.4436V35.5557H39.9991V40.0001H35.5547V44.4446H39.9991V48.889H44.4436V44.4446H48.888Z" fill="white"/>
<path d="M66.666 44.4443H71.1105V48.8888H66.666V44.4443Z" fill="white"/>
<path d="M48.8887 44.4443H62.222V48.8888H48.8887V44.4443Z" fill="white"/>
<path d="M66.6662 31.1113H62.2218V35.5558H57.7773V40.0002H62.2218V44.4447H66.6662V40.0002H71.1107V35.5558H66.6662V31.1113Z" fill="white"/>
<path d="M44.4453 48.8887H48.8898V62.222H44.4453V48.8887Z" fill="white"/>
<path d="M31.1113 62.2221H35.5558V57.7777H40.0002V53.3332H35.5558V44.4443H31.1113V62.2221Z" fill="white"/>
</g>
<defs>
<clipPath id="clip0_93_58872">
<rect width="80" height="80" fill="white"/>
</clipPath>
</defs>
</svg>
