              <svg
                width="41"
                height="40"
                viewBox="0 0 41 40"
                fill="none"
                xmlns="http://www.w3.org/2000/svg"
              >
                <path
                  d="M30.5 33.3337H10.5C7.73858 33.3337 5.5 31.0951 5.5 28.3337V10.3749C5.5 8.32709 7.1601 6.66699 9.20794 6.66699H20.5229C21.3171 6.66699 21.9736 7.90085 22.6071 9.25033H10.5C9.57952 9.25033 8.83333 9.99652 8.83333 10.917C8.83333 11.8375 9.57952 12.5837 10.5 12.5837H24.6484L24.6667 12.5929H30.5016C33.2631 12.5929 35.5 14.8315 35.5 17.5929V18.3337H32.1667C29.4052 18.3337 27.1667 20.5722 27.1667 23.3337C27.1667 26.0951 29.4052 28.3337 32.1667 28.3337H35.5C35.5 31.0951 33.2614 33.3337 30.5 33.3337Z"
                  fill="#EF8354"
                />
                <path
                  d="M35.5 25.0003V21.667H32.1667C31.2462 21.667 30.5 22.4132 30.5 23.3337C30.5 24.2541 31.2462 25.0003 32.1667 25.0003H35.5Z"
                  fill="#EF8354"
                />
              </svg>