<svg width="123" height="37" viewBox="0 0 123 37" fill="none" xmlns="http://www.w3.org/2000/svg">
<rect x="1.2" y="0.95" width="120.6" height="35.1" rx="4.05" fill="#111111"/>
<rect x="1.2" y="0.95" width="120.6" height="35.1" rx="4.05" stroke="#FEFDFD" stroke-width="0.9"/>
<g filter="url(#filter0_ii_93_58895)">
<path d="M10.1433 7.28421C9.88136 7.56141 9.72656 7.99161 9.72656 8.54871V28.4531C9.72656 29.0111 9.88136 29.4404 10.1433 29.7176L10.2099 29.7824L21.36 18.6323V18.5009V18.3695L10.2099 7.21851L10.1433 7.28421Z" fill="url(#paint0_linear_93_58895)"/>
<path d="M25.0755 22.35L21.3594 18.6321V18.5007V18.3693L25.0764 14.6523L25.1601 14.7L29.5638 17.202C30.8211 17.9166 30.8211 19.0857 29.5638 19.8012L25.1601 22.3032L25.0755 22.35Z" fill="url(#paint1_linear_93_58895)"/>
<g filter="url(#filter1_i_93_58895)">
<path d="M25.16 22.3023L21.3584 18.5007L10.1426 29.7174C10.5566 30.1566 11.2415 30.2106 12.0128 29.7732L25.16 22.3023Z" fill="url(#paint2_linear_93_58895)"/>
</g>
<path d="M25.16 14.6992L12.0128 7.22923C11.2415 6.79093 10.5566 6.84583 10.1426 7.28503L21.3593 18.5017L25.16 14.6992Z" fill="url(#paint3_linear_93_58895)"/>
</g>
<path d="M62.0721 20.0761C59.9553 20.0761 58.23 21.6862 58.23 23.9038C58.23 26.1079 59.9553 27.7315 62.0721 27.7315C64.1898 27.7315 65.9151 26.1079 65.9151 23.9038C65.9142 21.6862 64.1889 20.0761 62.0721 20.0761ZM62.0721 26.2249C60.912 26.2249 59.9121 25.2682 59.9121 23.9047C59.9121 22.5268 60.9129 21.5845 62.0721 21.5845C63.2322 21.5845 64.2321 22.5268 64.2321 23.9047C64.2321 25.2673 63.2322 26.2249 62.0721 26.2249ZM53.6895 20.0761C51.5727 20.0761 49.8474 21.6862 49.8474 23.9038C49.8474 26.1079 51.5727 27.7315 53.6895 27.7315C55.8072 27.7315 57.5325 26.1079 57.5325 23.9038C57.5325 21.6862 55.8072 20.0761 53.6895 20.0761ZM53.6895 26.2249C52.5294 26.2249 51.5295 25.2682 51.5295 23.9047C51.5295 22.5268 52.5303 21.5845 53.6895 21.5845C54.8496 21.5845 55.8495 22.5268 55.8495 23.9047C55.8504 25.2673 54.8496 26.2249 53.6895 26.2249ZM43.7193 21.2515V22.8751H47.6055C47.4894 23.7886 47.1852 24.4555 46.7208 24.919C46.1556 25.4842 45.2709 26.1079 43.7193 26.1079C41.3271 26.1079 39.4569 24.1792 39.4569 21.787C39.4569 19.3948 41.3271 17.4661 43.7193 17.4661C45.0099 17.4661 45.9522 17.9737 46.6479 18.6262L47.7936 17.4805C46.8216 16.5526 45.5319 15.8425 43.7193 15.8425C40.4424 15.8425 37.6875 18.5101 37.6875 21.787C37.6875 25.0639 40.4424 27.7315 43.7193 27.7315C45.4878 27.7315 46.8225 27.151 47.8656 26.0638C48.9384 24.991 49.2723 23.4826 49.2723 22.2649C49.2723 21.8887 49.2435 21.5404 49.185 21.2506H43.7193V21.2515ZM84.4965 22.5124C84.1779 21.6574 83.2059 20.0761 81.2196 20.0761C79.2477 20.0761 77.6088 21.6277 77.6088 23.9038C77.6088 26.0494 79.2333 27.7315 81.4077 27.7315C83.1618 27.7315 84.177 26.6587 84.5982 26.035L83.2932 25.1647C82.8585 25.8028 82.2636 26.2231 81.4077 26.2231C80.5527 26.2231 79.9434 25.8316 79.5519 25.063L84.6702 22.9462L84.4965 22.5124ZM79.2765 23.7886C79.2333 22.309 80.4222 21.5557 81.2781 21.5557C81.945 21.5557 82.5102 21.8896 82.6992 22.3675L79.2765 23.7886ZM75.1158 27.5002H76.797V16.2493H75.1158V27.5002ZM72.36 20.932H72.3024C71.9253 20.482 71.1999 20.0761 70.2873 20.0761C68.373 20.0761 66.6189 21.7582 66.6189 23.9191C66.6189 26.0647 68.373 27.7324 70.2873 27.7324C71.2008 27.7324 71.9253 27.3265 72.3024 26.863H72.36V27.4138C72.36 28.8781 71.577 29.6611 70.3161 29.6611C69.2865 29.6611 68.6484 28.9222 68.3874 28.2985L66.9231 28.9078C67.3434 29.9221 68.4594 31.1695 70.3161 31.1695C72.288 31.1695 73.9557 30.0094 73.9557 27.1816V20.3092H72.3609V20.932H72.36ZM70.4322 26.2249C69.2721 26.2249 68.301 25.2529 68.301 23.9191C68.301 22.57 69.2721 21.5845 70.4322 21.5845C71.577 21.5845 72.4761 22.57 72.4761 23.9191C72.4761 25.2529 71.577 26.2249 70.4322 26.2249ZM92.3751 16.2493H88.3512V27.5002H90.0297V23.2378H92.3742C94.2354 23.2378 96.066 21.8905 96.066 19.744C96.066 17.5975 94.2363 16.2493 92.3751 16.2493ZM92.4183 21.6718H90.0297V17.8153H92.4183C93.6738 17.8153 94.3866 18.8548 94.3866 19.744C94.3866 20.6152 93.6738 21.6718 92.4183 21.6718ZM102.797 20.0563C101.581 20.0563 100.322 20.5918 99.801 21.7789L101.291 22.4008C101.61 21.7789 102.204 21.5755 102.826 21.5755C103.694 21.5755 104.577 22.0966 104.592 23.0227V23.1388C104.287 22.9651 103.636 22.705 102.84 22.705C101.234 22.705 99.5976 23.5879 99.5976 25.2376C99.5976 26.7433 100.915 27.7126 102.391 27.7126C103.52 27.7126 104.143 27.2059 104.533 26.6119H104.591V27.4804H106.213V23.1667C106.214 21.1705 104.721 20.0563 102.797 20.0563ZM102.594 26.2222C102.045 26.2222 101.277 25.9468 101.277 25.2664C101.277 24.3979 102.233 24.0649 103.058 24.0649C103.795 24.0649 104.143 24.2242 104.592 24.4411C104.461 25.4842 103.564 26.2222 102.594 26.2222ZM112.118 20.302L110.193 25.18H110.136L108.138 20.302H106.329L109.325 27.1195L107.617 30.9121H109.368L113.986 20.302H112.118ZM96.993 27.5002H98.6715V16.2493H96.993V27.5002Z" fill="white"/>
<path d="M43.4262 9.71862C43.4262 10.4728 43.203 11.0731 42.7557 11.5213C42.2481 12.0541 41.5857 12.3205 40.7721 12.3205C39.9927 12.3205 39.3294 12.0505 38.7849 11.5105C38.2395 10.9696 37.9668 10.3 37.9668 9.50082C37.9668 8.70072 38.2395 8.03112 38.7849 7.49112C39.3294 6.95022 39.9927 6.68023 40.7721 6.68023C41.1591 6.68023 41.529 6.75582 41.88 6.90612C42.2319 7.05732 42.5136 7.25802 42.7242 7.50912L42.2499 7.98432C41.8926 7.55682 41.4003 7.34352 40.7712 7.34352C40.2024 7.34352 39.711 7.54333 39.2961 7.94293C38.8812 8.34253 38.6742 8.86182 38.6742 9.49992C38.6742 10.138 38.8812 10.6573 39.2961 11.0569C39.711 11.4565 40.2024 11.6563 40.7712 11.6563C41.3742 11.6563 41.8773 11.4556 42.2796 11.0533C42.5406 10.7914 42.6918 10.4269 42.7323 9.95982H40.7712V9.31093H43.3875C43.4145 9.45223 43.4262 9.58812 43.4262 9.71862Z" fill="white"/>
<path d="M47.5753 7.46328H45.1165V9.17508H47.3341V9.82398H45.1165V11.5358H47.5753V12.2H44.4226V6.79998H47.5753V7.46328Z" fill="white"/>
<path d="M50.5011 12.2H49.8072V7.46328H48.2988V6.79998H52.0095V7.46328H50.5011V12.2Z" fill="white"/>
<path d="M54.6941 12.2V6.79998H55.388V12.2H54.6941Z" fill="white"/>
<path d="M58.4653 12.2H57.7714V7.46328H56.263V6.79998H59.9737V7.46328H58.4653V12.2Z" fill="white"/>
<path d="M66.998 11.5025C66.467 12.0479 65.8073 12.3206 65.018 12.3206C64.2287 12.3206 63.569 12.0479 63.0389 11.5025C62.5079 10.9571 62.2433 10.2893 62.2433 9.49997C62.2433 8.71067 62.5079 8.04287 63.0389 7.49747C63.569 6.95207 64.2287 6.67847 65.018 6.67847C65.8028 6.67847 66.4616 6.95297 66.9944 7.50107C67.5272 8.04917 67.7936 8.71517 67.7936 9.49997C67.7936 10.2893 67.5281 10.9571 66.998 11.5025ZM63.551 11.0498C63.9506 11.4548 64.4393 11.6564 65.018 11.6564C65.5967 11.6564 66.0863 11.4539 66.485 11.0498C66.8846 10.6448 67.0853 10.1282 67.0853 9.49997C67.0853 8.87177 66.8846 8.35517 66.485 7.95017C66.0863 7.54517 65.5967 7.34357 65.018 7.34357C64.4393 7.34357 63.9506 7.54607 63.551 7.95017C63.1523 8.35517 62.9516 8.87177 62.9516 9.49997C62.9516 10.1282 63.1523 10.6448 63.551 11.0498Z" fill="white"/>
<path d="M68.7674 12.2V6.79998H69.6116L72.236 11.0003H72.2657L72.236 9.95988V6.79998H72.9299V12.2H72.2054L69.4595 7.79538H69.4298L69.4595 8.83577V12.2H68.7674Z" fill="white"/>
<path d="M43.4262 9.71862C43.4262 10.4728 43.203 11.0731 42.7557 11.5213C42.2481 12.0541 41.5857 12.3205 40.7721 12.3205C39.9927 12.3205 39.3294 12.0505 38.7849 11.5105C38.2395 10.9696 37.9668 10.3 37.9668 9.50082C37.9668 8.70072 38.2395 8.03112 38.7849 7.49112C39.3294 6.95022 39.9927 6.68023 40.7721 6.68023C41.1591 6.68023 41.529 6.75582 41.88 6.90612C42.2319 7.05732 42.5136 7.25802 42.7242 7.50912L42.2499 7.98432C41.8926 7.55682 41.4003 7.34352 40.7712 7.34352C40.2024 7.34352 39.711 7.54333 39.2961 7.94293C38.8812 8.34253 38.6742 8.86182 38.6742 9.49992C38.6742 10.138 38.8812 10.6573 39.2961 11.0569C39.711 11.4565 40.2024 11.6563 40.7712 11.6563C41.3742 11.6563 41.8773 11.4556 42.2796 11.0533C42.5406 10.7914 42.6918 10.4269 42.7323 9.95982H40.7712V9.31093H43.3875C43.4145 9.45223 43.4262 9.58812 43.4262 9.71862Z" stroke="white" stroke-width="0.18" stroke-miterlimit="10"/>
<path d="M47.5753 7.46328H45.1165V9.17508H47.3341V9.82398H45.1165V11.5358H47.5753V12.2H44.4226V6.79998H47.5753V7.46328Z" stroke="white" stroke-width="0.18" stroke-miterlimit="10"/>
<path d="M50.5011 12.2H49.8072V7.46328H48.2988V6.79998H52.0095V7.46328H50.5011V12.2Z" stroke="white" stroke-width="0.18" stroke-miterlimit="10"/>
<path d="M54.6941 12.2V6.79998H55.388V12.2H54.6941Z" stroke="white" stroke-width="0.18" stroke-miterlimit="10"/>
<path d="M58.4653 12.2H57.7714V7.46328H56.263V6.79998H59.9737V7.46328H58.4653V12.2Z" stroke="white" stroke-width="0.18" stroke-miterlimit="10"/>
<path d="M66.998 11.5025C66.467 12.0479 65.8073 12.3206 65.018 12.3206C64.2287 12.3206 63.569 12.0479 63.0389 11.5025C62.5079 10.9571 62.2433 10.2893 62.2433 9.49997C62.2433 8.71067 62.5079 8.04287 63.0389 7.49747C63.569 6.95207 64.2287 6.67847 65.018 6.67847C65.8028 6.67847 66.4616 6.95297 66.9944 7.50107C67.5272 8.04917 67.7936 8.71517 67.7936 9.49997C67.7936 10.2893 67.5281 10.9571 66.998 11.5025ZM63.551 11.0498C63.9506 11.4548 64.4393 11.6564 65.018 11.6564C65.5967 11.6564 66.0863 11.4539 66.485 11.0498C66.8846 10.6448 67.0853 10.1282 67.0853 9.49997C67.0853 8.87177 66.8846 8.35517 66.485 7.95017C66.0863 7.54517 65.5967 7.34357 65.018 7.34357C64.4393 7.34357 63.9506 7.54607 63.551 7.95017C63.1523 8.35517 62.9516 8.87177 62.9516 9.49997C62.9516 10.1282 63.1523 10.6448 63.551 11.0498Z" stroke="white" stroke-width="0.18" stroke-miterlimit="10"/>
<path d="M68.7674 12.2V6.79998H69.6116L72.236 11.0003H72.2657L72.236 9.95988V6.79998H72.9299V12.2H72.2054L69.4595 7.79538H69.4298L69.4595 8.83577V12.2H68.7674Z" stroke="white" stroke-width="0.18" stroke-miterlimit="10"/>
<defs>
<filter id="filter0_ii_93_58895" x="9.72656" y="6.92676" width="20.7793" height="23.1487" filterUnits="userSpaceOnUse" color-interpolation-filters="sRGB">
<feFlood flood-opacity="0" result="BackgroundImageFix"/>
<feBlend mode="normal" in="SourceGraphic" in2="BackgroundImageFix" result="shape"/>
<feColorMatrix in="SourceAlpha" type="matrix" values="0 0 0 0 0 0 0 0 0 0 0 0 0 0 0 0 0 0 127 0" result="hardAlpha"/>
<feOffset dy="-0.135"/>
<feComposite in2="hardAlpha" operator="arithmetic" k2="-1" k3="1"/>
<feColorMatrix type="matrix" values="0 0 0 0 0 0 0 0 0 0 0 0 0 0 0 0 0 0 0.12 0"/>
<feBlend mode="normal" in2="shape" result="effect1_innerShadow_93_58895"/>
<feColorMatrix in="SourceAlpha" type="matrix" values="0 0 0 0 0 0 0 0 0 0 0 0 0 0 0 0 0 0 127 0" result="hardAlpha"/>
<feOffset dy="0.135"/>
<feComposite in2="hardAlpha" operator="arithmetic" k2="-1" k3="1"/>
<feColorMatrix type="matrix" values="0 0 0 0 1 0 0 0 0 1 0 0 0 0 1 0 0 0 0.25 0"/>
<feBlend mode="normal" in2="effect1_innerShadow_93_58895" result="effect2_innerShadow_93_58895"/>
</filter>
<filter id="filter1_i_93_58895" x="10.1426" y="18.5007" width="15.0176" height="11.5747" filterUnits="userSpaceOnUse" color-interpolation-filters="sRGB">
<feFlood flood-opacity="0" result="BackgroundImageFix"/>
<feBlend mode="normal" in="SourceGraphic" in2="BackgroundImageFix" result="shape"/>
<feColorMatrix in="SourceAlpha" type="matrix" values="0 0 0 0 0 0 0 0 0 0 0 0 0 0 0 0 0 0 127 0" result="hardAlpha"/>
<feOffset dy="-0.135"/>
<feComposite in2="hardAlpha" operator="arithmetic" k2="-1" k3="1"/>
<feColorMatrix type="matrix" values="0 0 0 0 0 0 0 0 0 0 0 0 0 0 0 0 0 0 0.08 0"/>
<feBlend mode="normal" in2="shape" result="effect1_innerShadow_93_58895"/>
</filter>
<linearGradient id="paint0_linear_93_58895" x1="20.3716" y1="8.33811" x2="5.26778" y2="23.4419" gradientUnits="userSpaceOnUse">
<stop stop-color="#00A0FF"/>
<stop offset="0.0066" stop-color="#00A1FF"/>
<stop offset="0.2601" stop-color="#00BEFF"/>
<stop offset="0.5122" stop-color="#00D2FF"/>
<stop offset="0.7604" stop-color="#00DFFF"/>
<stop offset="1" stop-color="#00E3FF"/>
</linearGradient>
<linearGradient id="paint1_linear_93_58895" x1="31.2004" y1="18.5007" x2="9.42412" y2="18.5007" gradientUnits="userSpaceOnUse">
<stop stop-color="#FFE000"/>
<stop offset="0.4087" stop-color="#FFBD00"/>
<stop offset="0.7754" stop-color="#FFA500"/>
<stop offset="1" stop-color="#FF9C00"/>
</linearGradient>
<linearGradient id="paint2_linear_93_58895" x1="23.0955" y1="20.5652" x2="2.61282" y2="41.0479" gradientUnits="userSpaceOnUse">
<stop stop-color="#FF3A44"/>
<stop offset="1" stop-color="#C31162"/>
</linearGradient>
<linearGradient id="paint3_linear_93_58895" x1="7.31784" y1="0.659046" x2="16.4639" y2="9.80512" gradientUnits="userSpaceOnUse">
<stop stop-color="#32A071"/>
<stop offset="0.0685" stop-color="#2DA771"/>
<stop offset="0.4762" stop-color="#15CF74"/>
<stop offset="0.8009" stop-color="#06E775"/>
<stop offset="1" stop-color="#00F076"/>
</linearGradient>
</defs>
</svg>
