<svg width="60" height="60" viewBox="0 0 60 60" fill="none" xmlns="http://www.w3.org/2000/svg">
<rect width="60" height="60" rx="30" fill="#EF8354"/>
<path d="M9.04872 36.9282C9.04872 37.2094 8.94829 37.4504 8.74744 37.6513C8.54658 37.8521 8.30556 37.9526 8.02436 37.9526H7V30.4506C7 29.0447 7.41175 28.0906 8.23526 27.5885C9.05876 27.0662 9.95256 26.8051 10.9167 26.8051C11.4188 26.8051 11.9209 26.9056 12.4231 27.1064C12.9453 27.2872 13.3571 27.5583 13.6583 27.9199C14.2609 28.7032 14.5622 29.7075 14.5622 30.9327C14.5622 32.1981 14.2609 33.2224 13.6583 34.0058C13.0558 34.769 12.2825 35.1506 11.3385 35.1506C10.8363 35.1506 10.3944 35.0603 10.0128 34.8795C9.61111 34.6786 9.28974 34.3673 9.04872 33.9455V36.9282ZM12.4833 31.0231C12.4833 30.2397 12.3327 29.6372 12.0314 29.2154C11.7301 28.7936 11.2983 28.5827 10.7359 28.5827C10.1936 28.5827 9.7718 28.7936 9.47051 29.2154C9.18932 29.597 9.04872 30.1996 9.04872 31.0231C9.04872 31.7863 9.19936 32.3588 9.50064 32.7404C9.80192 33.1622 10.2338 33.3731 10.7962 33.3731C11.3184 33.3731 11.7301 33.1622 12.0314 32.7404C12.3327 32.3186 12.4833 31.7462 12.4833 31.0231ZM15.7637 34.2769C15.3419 33.9154 15.0406 33.4333 14.8598 32.8308C14.6791 32.2081 14.5887 31.5654 14.5887 30.9026C14.5887 30.3603 14.659 29.8179 14.7996 29.2756C14.9603 28.7333 15.2013 28.2814 15.5227 27.9199C16.0449 27.3173 16.7178 26.9658 17.5413 26.8654C18.3648 26.7449 19.1079 26.8051 19.7707 27.0462C20.534 27.3474 21.0964 27.8697 21.4579 28.6128C21.7994 29.2756 21.9701 30.0489 21.9701 30.9327C21.9701 31.5754 21.8998 32.1278 21.7592 32.5897C21.6186 33.0517 21.4378 33.4434 21.2169 33.7647C20.7348 34.4276 20.1222 34.8393 19.3791 35C18.7163 35.1808 18.0434 35.1908 17.3605 35.0301C16.6977 34.8895 16.1654 34.6385 15.7637 34.2769ZM17.2098 28.9744C16.7881 29.4363 16.5972 30.1293 16.6374 31.0532C16.6776 31.9571 16.8483 32.5897 17.1496 32.9513C17.2701 33.112 17.481 33.2526 17.7823 33.3731C18.0836 33.4735 18.3848 33.4835 18.6861 33.4032C19.0075 33.3028 19.2887 33.0718 19.5297 32.7103C19.7707 32.3487 19.9013 31.7662 19.9214 30.9628C19.9214 30.2397 19.8009 29.6974 19.5598 29.3359C19.3389 28.9744 19.0778 28.7434 18.7765 28.6429C18.4752 28.5425 18.1739 28.5425 17.8727 28.6429C17.5714 28.7233 17.3504 28.8338 17.2098 28.9744ZM27.721 32.5295H29.2274C29.0064 33.3731 28.5847 34.0158 27.962 34.4577C27.3394 34.9197 26.556 35.1506 25.612 35.1506C24.4671 35.1506 23.5733 34.7791 22.9306 34.0359C22.2879 33.3128 21.9665 32.2784 21.9665 30.9327C21.9665 29.6472 22.2778 28.6429 22.9005 27.9199C23.5432 27.1767 24.437 26.8051 25.5819 26.8051C26.787 26.8051 27.721 27.1667 28.3838 27.8897C28.7453 28.3316 29.0064 28.8438 29.1671 29.4263H27.0582C26.9577 29.2254 26.8573 29.0748 26.7569 28.9744C26.4958 28.6932 26.1242 28.5526 25.6421 28.5526C25.2002 28.5526 24.8387 28.6932 24.5575 28.9744C24.196 29.3761 24.0152 30.0389 24.0152 30.9628C24.0152 31.8868 24.196 32.5395 24.5575 32.9212C24.8186 33.2425 25.2103 33.4032 25.7325 33.4032C26.074 33.4032 26.3652 33.3329 26.6062 33.1923C26.6665 33.1722 26.7167 33.1421 26.7569 33.1019C26.8171 33.0417 26.8774 32.9814 26.9376 32.9212C26.9778 32.8609 27.0582 32.7806 27.1787 32.6801C27.2992 32.5797 27.4799 32.5295 27.721 32.5295ZM31.5135 26.9859V29.9385L34.0744 26.9859H36.6052L33.743 30.059L36.6353 35H34.1045L32.6283 32.2885C32.327 31.7462 32.0659 31.5152 31.8449 31.5955C31.624 31.6759 31.5135 31.7964 31.5135 31.9571V33.0718V35H29.4045V24.6359H30.4892C30.7704 24.6359 31.0114 24.7363 31.2122 24.9372C31.4131 25.138 31.5135 25.369 31.5135 25.6301V26.9859ZM42.4163 32.5295H43.9227C43.7018 33.3731 43.28 34.0158 42.6573 34.4577C42.0347 34.9197 41.2514 35.1506 40.3073 35.1506C39.1625 35.1506 38.2687 34.7791 37.6259 34.0359C36.9832 33.3128 36.6618 32.2784 36.6618 30.9327C36.6618 29.6472 36.9731 28.6429 37.5958 27.9199C38.2385 27.1767 39.1323 26.8051 40.2772 26.8051C41.4823 26.8051 42.4163 27.1667 43.0791 27.8897C43.7219 28.6329 44.0432 29.6673 44.0432 30.9929C44.0432 31.0733 44.0432 31.1436 44.0432 31.2038C44.0432 31.2641 44.0432 31.3043 44.0432 31.3244C44.0432 31.4248 44.0332 31.4951 44.0131 31.5353H38.8009C38.821 32.1579 38.9717 32.6199 39.2528 32.9212C39.514 33.2425 39.9056 33.4032 40.4278 33.4032C40.7693 33.4032 41.0605 33.3329 41.3016 33.1923C41.3618 33.1722 41.412 33.1421 41.4522 33.1019C41.5125 33.0417 41.5727 32.9814 41.633 32.9212C41.6531 32.8609 41.7234 32.7806 41.8439 32.6801C41.9845 32.5797 42.1753 32.5295 42.4163 32.5295ZM38.8009 30.1795H41.874C41.8338 29.6372 41.6932 29.2355 41.4522 28.9744C41.1911 28.6932 40.8195 28.5526 40.3375 28.5526C39.8956 28.5526 39.534 28.6932 39.2528 28.9744C38.9717 29.2556 38.821 29.6573 38.8009 30.1795ZM47.7755 35C47.1127 35.0402 46.3896 35.0301 45.6063 34.9699C44.843 34.9096 44.4614 34.4175 44.4614 33.4936V24.6359H45.546C45.8071 24.6359 46.0381 24.7363 46.239 24.9372C46.4398 25.138 46.5403 25.3791 46.5403 25.6603V27.016H47.7755V27.4378C47.7755 27.7391 47.6751 27.9902 47.4742 28.191C47.2734 28.3718 47.0324 28.4622 46.7512 28.4622H46.5403V32.9212C46.5403 33.2626 46.7411 33.4333 47.1428 33.4333H47.7755V35ZM51.3572 35C50.6943 35.0402 49.9713 35.0301 49.1879 34.9699C48.4247 34.9096 48.0431 34.4175 48.0431 33.4936V24.6359H49.1277C49.3888 24.6359 49.6198 24.7363 49.8206 24.9372C50.0215 25.138 50.1219 25.3791 50.1219 25.6603V27.016H51.3572V27.4378C51.3572 27.7391 51.2567 27.9902 51.0559 28.191C50.855 28.3718 50.614 28.4622 50.3328 28.4622H50.1219V32.9212C50.1219 33.2626 50.3228 33.4333 50.7245 33.4333H51.3572V35ZM51.5644 26.9859H52.6491C52.9303 26.9859 53.1713 27.0863 53.3721 27.2872C53.573 27.488 53.6734 27.7291 53.6734 28.0103V35H51.5644V26.9859ZM51.5644 24.6359H52.6491C52.9303 24.6359 53.1713 24.7363 53.3721 24.9372C53.573 25.138 53.6734 25.3791 53.6734 25.6603V26.2929H51.5644V24.6359Z" fill="white"/>
</svg>
