<svg width="91" height="90" viewBox="0 0 91 90" fill="none" xmlns="http://www.w3.org/2000/svg">
<path d="M60.5019 89.9995H50.5019V79.9995H60.5019V89.9995ZM50.5019 54.9995H40.5019V79.9995H50.5019V54.9995ZM90.5019 44.9995H80.5019V64.9995H90.5019V44.9995ZM80.5019 34.9995H70.5019V44.9995H80.5019V34.9995ZM20.502 44.9995H10.502V54.9995H20.502V44.9995ZM10.502 34.9995H0.501953V44.9995H10.502V34.9995ZM45.5019 9.99951H55.5019V-0.000488281H45.5019V9.99951ZM8.00195 7.49951V22.4995H23.002V7.49951H8.00195ZM30.5019 29.9995H0.501953V-0.000488281H30.5019V29.9995ZM8.00195 67.4995V82.4995H23.002V67.4995H8.00195ZM30.5019 89.9995H0.501953V59.9995H30.5019V89.9995ZM68.0019 7.49951V22.4995H83.0019V7.49951H68.0019ZM90.5019 29.9995H60.5019V-0.000488281H90.5019V29.9995ZM80.5019 79.9995V64.9995H60.5019V74.9995H70.5019V89.9995H90.5019V79.9995H80.5019ZM70.5019 44.9995H50.5019V54.9995H70.5019V44.9995ZM50.5019 34.9995H20.502V44.9995H30.5019V54.9995H40.5019V44.9995H50.5019V34.9995ZM55.5019 29.9995V19.9995H45.5019V9.99951H35.5019V29.9995H55.5019ZM19.252 11.2495H11.752V18.7495H19.252V11.2495ZM19.252 71.2495H11.752V78.7495H19.252V71.2495ZM79.2519 11.2495H71.7519V18.7495H79.2519V11.2495Z" fill="white"/>
</svg>
