<svg width="24" height="24" viewBox="0 0 24 24" fill="none" xmlns="http://www.w3.org/2000/svg">
<path d="M8.88341 14.9754C8.6113 15.9132 9.21492 16.9146 10.2305 17.2093C11.2461 17.5039 12.2927 16.9814 12.5669 16.0364L12.9228 14.8097C12.946 14.7297 13.0191 14.6744 13.1031 14.673C15.7357 14.6107 18.0222 12.9852 18.7238 10.5672L18.9859 9.66391C19.8718 6.61059 17.9526 3.29389 14.703 2.28229C13.0712 1.76977 11.3552 1.89192 9.87211 2.60802C8.39679 3.32714 7.33441 4.56358 6.89448 6.07979C6.62048 7.0241 7.2313 8.02755 8.24764 8.32245C9.26325 8.61713 10.3091 8.09436 10.5812 7.15654C10.753 6.56446 11.1669 6.0801 11.7456 5.79741C12.336 5.51118 13.0141 5.46398 13.6385 5.66568C14.9123 6.0665 15.657 7.3837 15.3031 8.60315L15.0431 9.49919C14.7363 10.5566 13.6628 11.2314 12.4845 11.0965C11.098 10.9386 9.82681 11.724 9.46672 12.965L8.88341 14.9754ZM8.7479 22.0715C9.22549 22.21 9.73856 22.1532 10.1742 21.9135C10.6099 21.6738 10.9325 21.2708 11.0711 20.7932C11.2097 20.3156 11.1529 19.8026 10.9132 19.3669C10.6734 18.9312 10.2705 18.6086 9.79288 18.47C9.3153 18.3314 8.80222 18.3882 8.36654 18.628C7.93085 18.8677 7.60823 19.2706 7.46966 19.7482C7.33109 20.2258 7.38791 20.7389 7.62763 21.1746C7.86734 21.6103 8.27032 21.9329 8.7479 22.0715Z" fill="#EF8354"/>
</svg>
