<svg width="24" height="24" viewBox="0 0 24 24" fill="none" xmlns="http://www.w3.org/2000/svg">
<path d="M17.9974 21.1976C16.8344 22.253 15.5645 22.0864 14.3422 21.5864C13.0486 21.0754 11.8618 21.0532 10.497 21.5864C8.78802 22.2752 7.88607 22.0752 6.86544 21.1976C1.07395 15.6094 1.92843 7.09936 8.5032 6.78828C10.1054 6.86605 11.2209 7.6104 12.1585 7.67706C13.5589 7.41043 14.8999 6.64386 16.3953 6.74385C18.1873 6.87716 19.5403 7.54374 20.4303 8.74359C16.7276 10.8211 17.6058 15.3872 21 16.6648C20.3235 18.3313 19.4453 19.9866 17.9856 21.2087L17.9974 21.1976ZM12.0398 6.72163C11.8618 4.24416 14.0099 2.19997 16.4784 2C16.8225 4.8663 13.7013 6.99937 12.0398 6.72163Z" fill="white"/>
</svg>
