<svg width="107" height="32" viewBox="0 0 107 32" fill="none" xmlns="http://www.w3.org/2000/svg">
<path d="M24 26.6666H8C5.79086 26.6666 4 24.8757 4 22.6666V8.2996C4 6.66133 5.32808 5.33325 6.96635 5.33325H16.0183C16.6537 5.33325 17.1789 6.32034 17.6857 7.39992H8C7.26362 7.39992 6.66667 7.99687 6.66667 8.73325C6.66667 9.46963 7.26362 10.0666 8 10.0666H19.3187L19.3333 10.074H24.0013C26.2104 10.074 28 11.8649 28 14.074V14.6666H25.3333C23.1242 14.6666 21.3333 16.4574 21.3333 18.6666C21.3333 20.8757 23.1242 22.6666 25.3333 22.6666H28C28 24.8757 26.2091 26.6666 24 26.6666Z" fill="#EF8354"/>
<path d="M28 19.9999V17.3333H25.3333C24.597 17.3333 24 17.9302 24 18.6666C24 19.403 24.597 19.9999 25.3333 19.9999H28Z" fill="#EF8354"/>
<path d="M44.8333 25.6667C44.8333 26.0556 44.6944 26.3889 44.4167 26.6667C44.1389 26.9444 43.8056 27.0833 43.4167 27.0833H42V16.7083C42 14.7639 42.5694 13.4444 43.7083 12.75C44.8472 12.0278 46.0833 11.6667 47.4167 11.6667C48.1111 11.6667 48.8056 11.8056 49.5 12.0833C50.2222 12.3333 50.7917 12.7083 51.2083 13.2083C52.0417 14.2917 52.4583 15.6806 52.4583 17.375C52.4583 19.125 52.0417 20.5417 51.2083 21.625C50.375 22.6806 49.3056 23.2083 48 23.2083C47.3056 23.2083 46.6944 23.0833 46.1667 22.8333C45.6111 22.5556 45.1667 22.125 44.8333 21.5417V25.6667ZM49.5833 17.5C49.5833 16.4167 49.375 15.5833 48.9583 15C48.5417 14.4167 47.9444 14.125 47.1667 14.125C46.4167 14.125 45.8333 14.4167 45.4167 15C45.0278 15.5278 44.8333 16.3611 44.8333 17.5C44.8333 18.5556 45.0417 19.3472 45.4583 19.875C45.875 20.4583 46.4722 20.75 47.25 20.75C47.9722 20.75 48.5417 20.4583 48.9583 19.875C49.375 19.2917 49.5833 18.5 49.5833 17.5ZM54.12 22C53.5367 21.5 53.12 20.8333 52.87 20C52.62 19.1389 52.495 18.25 52.495 17.3333C52.495 16.5833 52.5922 15.8333 52.7867 15.0833C53.0089 14.3333 53.3422 13.7083 53.7867 13.2083C54.5089 12.375 55.4394 11.8889 56.5783 11.75C57.7172 11.5833 58.745 11.6667 59.6617 12C60.7172 12.4167 61.495 13.1389 61.995 14.1667C62.4672 15.0833 62.7033 16.1528 62.7033 17.375C62.7033 18.2639 62.6061 19.0278 62.4117 19.6667C62.2172 20.3056 61.9672 20.8472 61.6617 21.2917C60.995 22.2083 60.1478 22.7778 59.12 23C58.2033 23.25 57.2728 23.2639 56.3283 23.0417C55.4117 22.8472 54.6756 22.5 54.12 22ZM56.12 14.6667C55.5367 15.3056 55.2728 16.2639 55.3283 17.5417C55.3839 18.7917 55.62 19.6667 56.0367 20.1667C56.2033 20.3889 56.495 20.5833 56.9117 20.75C57.3283 20.8889 57.745 20.9028 58.1617 20.7917C58.6061 20.6528 58.995 20.3333 59.3283 19.8333C59.6617 19.3333 59.8422 18.5278 59.87 17.4167C59.87 16.4167 59.7033 15.6667 59.37 15.1667C59.0644 14.6667 58.7033 14.3472 58.2867 14.2083C57.87 14.0694 57.4533 14.0694 57.0367 14.2083C56.62 14.3194 56.3144 14.4722 56.12 14.6667ZM70.6567 19.5833H72.74C72.4344 20.75 71.8511 21.6389 70.99 22.25C70.1289 22.8889 69.0456 23.2083 67.74 23.2083C66.1567 23.2083 64.9206 22.6944 64.0317 21.6667C63.1428 20.6667 62.6983 19.2361 62.6983 17.375C62.6983 15.5972 63.1289 14.2083 63.99 13.2083C64.8789 12.1806 66.115 11.6667 67.6983 11.6667C69.365 11.6667 70.6567 12.1667 71.5733 13.1667C72.0733 13.7778 72.4344 14.4861 72.6567 15.2917H69.74C69.6011 15.0139 69.4622 14.8056 69.3233 14.6667C68.9622 14.2778 68.4483 14.0833 67.7817 14.0833C67.1706 14.0833 66.6706 14.2778 66.2817 14.6667C65.7817 15.2222 65.5317 16.1389 65.5317 17.4167C65.5317 18.6944 65.7817 19.5972 66.2817 20.125C66.6428 20.5694 67.1844 20.7917 67.9067 20.7917C68.3789 20.7917 68.7817 20.6944 69.115 20.5C69.1983 20.4722 69.2678 20.4306 69.3233 20.375C69.4067 20.2917 69.49 20.2083 69.5733 20.125C69.6289 20.0417 69.74 19.9306 69.9067 19.7917C70.0733 19.6528 70.3233 19.5833 70.6567 19.5833ZM75.9017 11.9167V16L79.4433 11.9167H82.9433L78.985 16.1667L82.985 23H79.485L77.4433 19.25C77.0267 18.5 76.6656 18.1806 76.36 18.2917C76.0544 18.4028 75.9017 18.5694 75.9017 18.7917V20.3333V23H72.985V8.66667H74.485C74.8739 8.66667 75.2072 8.80556 75.485 9.08333C75.7628 9.36111 75.9017 9.68056 75.9017 10.0417V11.9167ZM90.98 19.5833H93.0633C92.7578 20.75 92.1744 21.6389 91.3133 22.25C90.4522 22.8889 89.3689 23.2083 88.0633 23.2083C86.48 23.2083 85.2439 22.6944 84.355 21.6667C83.4661 20.6667 83.0217 19.2361 83.0217 17.375C83.0217 15.5972 83.4522 14.2083 84.3133 13.2083C85.2022 12.1806 86.4383 11.6667 88.0217 11.6667C89.6883 11.6667 90.98 12.1667 91.8967 13.1667C92.7856 14.1944 93.23 15.625 93.23 17.4583C93.23 17.5694 93.23 17.6667 93.23 17.75C93.23 17.8333 93.23 17.8889 93.23 17.9167C93.23 18.0556 93.2161 18.1528 93.1883 18.2083H85.98C86.0078 19.0694 86.2161 19.7083 86.605 20.125C86.9661 20.5694 87.5078 20.7917 88.23 20.7917C88.7022 20.7917 89.105 20.6944 89.4383 20.5C89.5217 20.4722 89.5911 20.4306 89.6467 20.375C89.73 20.2917 89.8133 20.2083 89.8967 20.125C89.9244 20.0417 90.0217 19.9306 90.1883 19.7917C90.3828 19.6528 90.6467 19.5833 90.98 19.5833ZM85.98 16.3333H90.23C90.1744 15.5833 89.98 15.0278 89.6467 14.6667C89.2856 14.2778 88.7717 14.0833 88.105 14.0833C87.4939 14.0833 86.9939 14.2778 86.605 14.6667C86.2161 15.0556 86.0078 15.6111 85.98 16.3333ZM98.3917 23C97.475 23.0556 96.475 23.0417 95.3917 22.9583C94.3361 22.875 93.8083 22.1944 93.8083 20.9167V8.66667H95.3083C95.6694 8.66667 95.9889 8.80556 96.2667 9.08333C96.5444 9.36111 96.6833 9.69444 96.6833 10.0833V11.9583H98.3917V12.5417C98.3917 12.9583 98.2528 13.3056 97.975 13.5833C97.6972 13.8333 97.3639 13.9583 96.975 13.9583H96.6833V20.125C96.6833 20.5972 96.9611 20.8333 97.5167 20.8333H98.3917V23ZM103.345 23C102.428 23.0556 101.428 23.0417 100.345 22.9583C99.2894 22.875 98.7617 22.1944 98.7617 20.9167V8.66667H100.262C100.623 8.66667 100.942 8.80556 101.22 9.08333C101.498 9.36111 101.637 9.69444 101.637 10.0833V11.9583H103.345V12.5417C103.345 12.9583 103.206 13.3056 102.928 13.5833C102.651 13.8333 102.317 13.9583 101.928 13.9583H101.637V20.125C101.637 20.5972 101.914 20.8333 102.47 20.8333H103.345V23ZM103.632 11.9167H105.132C105.521 11.9167 105.854 12.0556 106.132 12.3333C106.409 12.6111 106.548 12.9444 106.548 13.3333V23H103.632V11.9167ZM103.632 8.66667H105.132C105.521 8.66667 105.854 8.80556 106.132 9.08333C106.409 9.36111 106.548 9.69444 106.548 10.0833V10.9583H103.632V8.66667Z" fill="#EF8354"/>
</svg>
